<?xml version="1.0" encoding="UTF-8" standalone="no"?>
<!DOCTYPE svg PUBLIC "-//W3C//DTD SVG 1.1//EN" "http://www.w3.org/Graphics/SVG/1.1/DTD/svg11.dtd">
<svg width="100%" height="100%" viewBox="0 0 964 1033" version="1.1" xmlns="http://www.w3.org/2000/svg" xmlns:xlink="http://www.w3.org/1999/xlink" xml:space="preserve" xmlns:serif="http://www.serif.com/" style="fill-rule:evenodd;clip-rule:evenodd;stroke-linejoin:round;stroke-miterlimit:2;">
    <g transform="matrix(1,0,0,1,-956.468,-47.3176)">
        <g transform="matrix(3.63181,0,0,3.38524,961.851,47.3176)">
            <path d="M0,305.054L263.821,305.054L263.821,0L141.841,0C112.651,5.271 73.008,6.103 66.801,25.363C53.383,66.995 91.694,90.057 66.801,114.934C41.907,139.811 -23.139,173.695 8.985,215.112C41.109,256.529 17.037,255.608 8.985,267.699C2.543,277.372 -4.646,291.417 0,305.054" style="fill:rgb(241,241,241);fill-rule:nonzero;"/>
        </g>
        <g transform="matrix(3.63181,0,0,3.38524,1715.7,888.115)">
            <path d="M0,33.848C-2.398,33.848 -4.412,31.982 -4.563,29.557C-4.72,27.039 -2.81,24.87 -0.294,24.706C-0.163,24.697 5.294,24.273 12.503,21.327C22.124,17.397 30.183,11.057 36.455,2.484C37.947,0.445 40.811,0 42.85,1.494C44.89,2.986 45.333,5.849 43.841,7.888C26.229,31.959 1.339,33.774 0.288,33.839C0.191,33.845 0.095,33.848 0,33.848" style="fill:rgb(116,129,142);fill-rule:nonzero;"/>
        </g>
        <g transform="matrix(3.63181,0,0,3.38524,1070.87,860.953)">
            <path d="M0,-40.613C0,-43.01 1.866,-45.025 4.292,-45.175C6.809,-45.333 8.978,-43.423 9.142,-40.907C9.152,-40.776 9.575,-35.319 12.52,-28.11C16.452,-18.489 22.792,-10.43 31.364,-4.158C33.404,-2.666 33.847,0.198 32.355,2.238C30.863,4.277 28,4.72 25.96,3.228C1.889,-14.384 0.074,-39.273 0.009,-40.325C0.003,-40.422 0,-40.517 0,-40.613" style="fill:rgb(116,129,142);fill-rule:nonzero;"/>
        </g>
        <g transform="matrix(3.63181,0,0,3.38524,1565.75,86.8695)">
            <path d="M0,7.599C1.781,9.203 2.029,11.938 0.518,13.841C-1.051,15.817 -3.921,16.15 -5.9,14.589C-6.004,14.508 -10.342,11.171 -17.67,8.535C-27.45,5.017 -37.681,4.334 -48.078,6.507C-50.552,7.023 -52.977,5.437 -53.493,2.963C-54.01,0.489 -52.424,-1.935 -49.95,-2.452C-20.753,-8.551 -1.046,6.758 -0.221,7.412C-0.145,7.473 -0.071,7.535 0,7.599" style="fill:rgb(116,129,142);fill-rule:nonzero;"/>
        </g>
        <g transform="matrix(3.21623,-1.57246,-1.687,-2.99787,1156.79,740.553)">
            <path d="M3.861,7.988L33.626,7.988L30.284,-19.754L2.875,-15.784L3.861,7.988Z" style="fill:rgb(253,160,128);fill-rule:nonzero;"/>
        </g>
        <g transform="matrix(3.63181,0,0,3.38524,1186.54,697.595)">
            <path d="M0,2.682C0,2.682 8.294,0.972 11.821,2.682C15.349,4.391 18.363,14.877 18.363,14.877L35.749,16.117L20.02,-13.435L3.718,-5.714L0,2.682Z" style="fill:rgb(244,144,124);fill-rule:nonzero;"/>
        </g>
        <g transform="matrix(3.63181,0,0,3.38524,1207.45,612.389)">
            <path d="M0,-69.988C-13.361,-64.12 -19.437,-48.531 -13.569,-35.17L31.175,66.722C37.043,80.083 52.632,86.158 65.993,80.291L196.197,23.114L196.197,-156.146L0,-69.988Z" style="fill:rgb(212,210,209);fill-rule:nonzero;"/>
        </g>
        <g transform="matrix(3.63181,0,0,3.38524,181.125,-282.653)">
            <g opacity="0.4">
                <g transform="matrix(0,-1,-1,0,458.125,265.969)">
                    <path d="M-8.891,-8.89C-13.801,-8.89 -17.783,-4.909 -17.783,0.002C-17.783,4.912 -13.801,8.891 -8.891,8.891C-3.98,8.891 0.001,4.912 0.001,0.002C0.001,-4.909 -3.98,-8.89 -8.891,-8.89" style="fill:rgb(128,128,128);fill-rule:nonzero;"/>
                </g>
            </g>
        </g>
        <g transform="matrix(3.63181,0,0,3.38524,181.125,-282.653)">
            <g opacity="0.4">
                <g transform="matrix(0,-1,-1,0,423.053,148.834)">
                    <path d="M-8.891,-8.891C-13.802,-8.891 -17.782,-4.911 -17.782,0.001C-17.782,4.911 -13.802,8.891 -8.891,8.891C-3.981,8.891 0,4.911 0,0.001C0,-4.911 -3.981,-8.891 -8.891,-8.891" style="fill:rgb(128,128,128);fill-rule:nonzero;"/>
                </g>
            </g>
        </g>
        <g transform="matrix(3.63181,0,0,3.38524,181.125,-282.653)">
            <g opacity="0.4">
                <g transform="matrix(0,-1,-1,0,296.916,215.626)">
                    <path d="M-8.891,-8.891C-13.801,-8.891 -17.782,-4.911 -17.782,0C-17.782,4.91 -13.801,8.891 -8.891,8.891C-3.98,8.891 0,4.91 0,0C0,-4.911 -3.98,-8.891 -8.891,-8.891" style="fill:rgb(128,128,128);fill-rule:nonzero;"/>
                </g>
            </g>
        </g>
        <g transform="matrix(3.63181,0,0,3.38524,181.125,-282.653)">
            <g opacity="0.4">
                <g transform="matrix(1,0,0,1,358.247,334.24)">
                    <path d="M0,-53.153L-8.483,-44.478L-44.076,-13.591L-49.641,-14.876L-44.479,-3.123C-43.999,-2.031 -43.448,-0.992 -42.846,0C-38.625,-1.14 -33.359,-2.826 -31.077,-4.631C-26.978,-7.872 -8.293,-34.087 -8.293,-34.087C-8.293,-34.087 -2.764,-37.519 -2.024,-39.374C-1.285,-41.228 0.096,-49.34 0.668,-50.674C1.239,-52.009 0,-53.153 0,-53.153" style="fill:rgb(128,128,128);fill-rule:nonzero;"/>
                </g>
                <g transform="matrix(1,0,0,1,326.026,255.521)">
                    <path d="M0,20.801C1.906,20.613 3.328,17.94 3.328,17.94L6.292,16.605L6.673,13.65L1.716,11.556L-26.094,3.576L-43.375,-0.188L-44.257,2.729L-39.205,14.232L-10.2,19.957C-10.2,19.957 -1.907,20.989 0,20.801" style="fill:rgb(128,128,128);fill-rule:nonzero;"/>
                </g>
            </g>
        </g>
        <g transform="matrix(3.63181,0,0,3.38524,181.125,-282.653)">
            <g opacity="0.4">
                <g transform="matrix(1,0,0,1,411.433,323.187)">
                    <path d="M0,-68.744L1.937,-50.759L12.179,-34.18L27.799,-18.307L-36.82,9.949L-40.634,-21.192L-44.319,-37.78L-54.579,-55.351L-0.938,-78.693C-0.938,-78.693 -0.553,-78.07 -0.531,-77.531C-0.51,-76.992 0,-68.744 0,-68.744" style="fill:rgb(128,128,128);fill-rule:nonzero;"/>
                </g>
            </g>
        </g>
        <g transform="matrix(3.63181,0,0,3.38524,1672.58,763.27)">
            <path d="M0,-53.483L-45.923,-33.644C-46.847,-33.245 -47.272,-32.172 -46.873,-31.249L-33.785,-0.952C-33.386,-0.028 -32.313,0.398 -31.39,-0.002L14.533,-19.839C15.457,-20.239 15.883,-21.311 15.483,-22.235L2.396,-52.533C1.996,-53.457 0.924,-53.881 0,-53.483" style="fill:rgb(229,229,229);fill-rule:nonzero;"/>
        </g>
        <g transform="matrix(3.63181,0,0,3.38524,1657.23,717.512)">
            <path d="M0,-36.633L-36.373,-20.92C-37.121,-20.597 -37.466,-19.727 -37.143,-18.979L-29.277,-0.771C-28.954,-0.023 -28.085,0.323 -27.336,-0.001L9.037,-15.714C9.786,-16.037 10.131,-16.906 9.808,-17.655L1.942,-35.862C1.618,-36.612 0.749,-36.956 0,-36.633" style="fill:rgb(102,102,102);fill-rule:nonzero;"/>
        </g>
        <g transform="matrix(3.63181,0,0,3.38524,1637.45,727.074)">
            <path d="M0,-10.567L-6.158,-7.907C-6.935,-7.572 -7.293,-6.67 -6.957,-5.893L-4.757,-0.798C-4.421,-0.022 -3.52,0.336 -2.742,0L3.416,-2.66C4.193,-2.996 4.551,-3.897 4.215,-4.674L2.015,-9.768C1.679,-10.546 0.777,-10.903 0,-10.567" style="fill:rgb(203,203,203);fill-rule:nonzero;"/>
        </g>
        <g transform="matrix(3.63181,0,0,3.38524,1666.5,648.939)">
            <path d="M0,-31L-25.662,-19.915L-51.324,-8.829C-52.181,-8.458 -52.411,-7.351 -51.772,-6.67L-45.534,-0.024C-45.25,0.278 -44.808,0.37 -44.428,0.206L-21.288,-9.79L1.851,-19.786C2.23,-19.95 2.467,-20.335 2.441,-20.749L1.879,-29.847C1.821,-30.778 0.856,-31.37 0,-31" style="fill:white;fill-rule:nonzero;"/>
        </g>
        <g transform="matrix(3.63181,0,0,3.38524,1675.37,618.046)">
            <path d="M0,-11.623L-0.561,-20.678C-0.913,-21.005 -1.478,-21.118 -2.015,-20.886L-27.677,-9.801L-53.339,1.285C-53.875,1.518 -54.18,2.006 -54.185,2.486L-47.976,9.102C-47.691,9.403 -47.249,9.495 -46.869,9.331L-23.729,-0.664L-0.591,-10.66C-0.211,-10.824 0.025,-11.21 0,-11.623" style="fill:rgb(128,128,128);fill-rule:nonzero;"/>
        </g>
        <g transform="matrix(3.63181,0,0,3.38524,1667.1,619.194)">
            <path d="M0,-11.386L-0.173,-18.855C-0.478,-19.112 -0.979,-19.185 -1.468,-18.974L-24.852,-8.872L-48.235,1.229C-48.725,1.44 -49.016,1.856 -49.036,2.254L-43.717,7.499C-43.474,7.738 -43.081,7.799 -42.734,7.648L-21.649,-1.46L-0.565,-10.568C-0.219,-10.718 0.008,-11.045 0,-11.386" style="fill:rgb(165,180,194);fill-rule:nonzero;"/>
        </g>
        <g transform="matrix(3.63181,0,0,3.38524,1584.49,655.505)">
            <path d="M0,32.679L-2.083,22.679C-2.083,22.679 -0.121,16.329 -0.27,15.119C-0.419,13.909 -2.566,6.325 -2.566,6.325C-2.566,6.325 -4.011,6.171 -4.319,6.943C-4.628,7.714 -4.319,11.426 -4.319,11.426C-4.319,11.426 -5.399,10.259 -5.708,9.565C-5.941,9.039 -6.44,3.828 -6.669,1.327C-6.738,0.575 -7.369,0 -8.125,0C-8.86,0 -9.48,0.546 -9.574,1.276L-9.951,4.212L-12.419,4.705L-13.576,7.406L-16.173,12.959L-14.538,19.228L-10.876,24.067L-10.105,32.679L0,32.679Z" style="fill:rgb(234,201,184);fill-rule:nonzero;"/>
        </g>
        <g transform="matrix(3.63181,0,0,3.38524,1711.55,625.812)">
            <path d="M0,26.506L-6.885,18.96C-6.885,18.96 -13.181,16.831 -14.073,16.001C-14.967,15.172 -19.855,8.989 -19.855,8.989C-19.855,8.989 -19.135,7.728 -18.328,7.93C-17.522,8.132 -14.695,10.556 -14.695,10.556C-14.695,10.556 -15.008,8.997 -15.39,8.341C-15.679,7.844 -19.609,4.387 -21.503,2.736C-22.073,2.239 -22.169,1.392 -21.727,0.779C-21.296,0.184 -20.489,0 -19.843,0.352L-17.243,1.767L-15.397,0.055L-12.531,0.698L-6.509,1.848L-2.386,6.844L-0.608,12.647L5.919,18.317L0,26.506Z" style="fill:rgb(234,201,184);fill-rule:nonzero;"/>
        </g>
        <g transform="matrix(-3.4213,1.13579,1.21852,3.18902,1285.28,666.2)">
            <rect x="-48.963" y="-8.458" width="44.869" height="32.157" style="fill:white;"/>
        </g>
        <g transform="matrix(-1.21854,-3.18902,-3.42129,1.13581,1373.63,568.013)">
            <rect x="-40.478" y="-15.173" width="29.774" height="43.725" style="fill:rgb(196,204,215);"/>
        </g>
        <g transform="matrix(-3.4213,1.13579,1.21852,3.18902,1277.23,658.596)">
            <rect x="-48.963" y="-8.459" width="44.868" height="32.158" style="fill:white;"/>
        </g>
        <g transform="matrix(3.63181,0,0,3.38524,1308.14,649.087)">
            <path d="M0,-16.138L5.283,-13.914C5.283,-13.914 11.322,-15.185 13.317,-14.422C15.312,-13.66 21.278,-9.859 21.907,-9.409C22.537,-8.958 23.507,-6.863 23.507,-6.417C23.507,-5.973 22.229,-4.067 20.846,-3.94C19.464,-3.813 13.102,-3.622 13.102,-3.622C13.102,-3.622 14.719,-2.224 14.988,-1.843C15.258,-1.462 15.312,-0.382 15.097,-0.191C14.881,0 9.975,-2.097 8.572,-2.542C7.171,-2.987 5.068,-4.829 4.69,-5.21C4.313,-5.591 3.02,-7.053 3.02,-7.053L-2.804,-9.409L0,-16.138Z" style="fill:rgb(250,209,177);fill-rule:nonzero;"/>
        </g>
        <g transform="matrix(3.63181,0,0,3.38524,1429.13,659.261)">
            <path d="M0,23.754L3.678,19.358C3.678,19.358 9.628,17.72 11.052,16.128C12.476,14.537 12.022,12.019 12.375,11.33C12.729,10.642 12.209,6.193 12.514,5.869C13.611,4.7 15.157,3.559 16.064,2.56C17.666,0.796 16.521,0 15.712,0.327C14.425,0.848 5.912,6.627 5.912,6.627C5.912,6.627 6.709,4.644 6.774,4.181C6.839,3.719 6.393,2.733 6.113,2.663C5.834,2.593 2.434,6.704 1.392,7.741C0.349,8.779 -0.676,11.38 -0.837,11.892C-0.998,12.403 -1.479,14.296 -1.479,14.296L-5.574,19.058L0,23.754Z" style="fill:rgb(250,209,177);fill-rule:nonzero;"/>
        </g>
        <g transform="matrix(3.63181,0,0,3.38524,1542.02,502.889)">
            <path d="M0,-38.435L-33.464,-27.294C-35.461,-26.629 -36.541,-24.472 -35.876,-22.474L-29.197,-2.413C-28.532,-0.415 -26.375,0.665 -24.377,0L9.087,-11.141C11.084,-11.806 12.164,-13.964 11.499,-15.961L4.82,-36.022C4.155,-38.02 1.997,-39.1 0,-38.435" style="fill:rgb(100,120,137);fill-rule:nonzero;"/>
        </g>
        <g transform="matrix(3.63181,0,0,3.38524,1427.01,463.722)">
            <path d="M0,-15.296C-1.484,-14.802 -2.289,-13.192 -1.795,-11.709L4.884,8.353C5.378,9.837 6.986,10.642 8.471,10.148L40.445,-0.496C41.929,-0.99 42.734,-2.599 42.24,-4.084L35.562,-24.145C35.067,-25.629 33.458,-26.434 31.975,-25.941L0,-15.296ZM41.061,1.354L7.597,12.495C5.093,13.328 2.377,11.969 1.544,9.465L-5.135,-10.597C-5.969,-13.101 -4.609,-15.816 -2.105,-16.65L31.358,-27.79C33.862,-28.624 36.578,-27.265 37.411,-24.761L44.09,-4.699C44.924,-2.195 43.564,0.52 41.061,1.354" style="fill:rgb(248,251,252);fill-rule:nonzero;"/>
        </g>
        <g transform="matrix(-1.14619,-3.21224,-3.4462,1.06837,1424.8,456.446)">
            <path d="M-1.128,-1.563C-1.784,-1.563 -2.315,-1.031 -2.315,-0.376C-2.315,0.281 -1.784,0.812 -1.128,0.813C-0.472,0.813 0.06,0.281 0.06,-0.374C0.06,-1.031 -0.471,-1.563 -1.128,-1.563" style="fill:rgb(212,210,209);fill-rule:nonzero;"/>
        </g>
        <g transform="matrix(3.63181,0,0,3.38524,181.125,-282.653)">
            <g opacity="0.4">
                <g transform="matrix(1,0,0,1,313.5,196.454)">
                    <path d="M0,-15.619L31.562,29.723L45.796,26.131L41.783,16.597L33.563,14.28L23.901,-3.111L73.441,-21.182L74.204,-29.044L67.684,-45.342L0,-15.619Z" style="fill:rgb(128,128,128);fill-rule:nonzero;"/>
                </g>
            </g>
        </g>
        <g transform="matrix(3.63181,0,0,3.38524,1479.63,448.316)">
            <path d="M0,1.584L-6.539,-1.418C-6.868,-1.569 -7.258,-1.471 -7.477,-1.181L-7.542,-1.094C-7.841,-0.698 -7.691,-0.126 -7.237,0.075L-0.633,2.99C-0.263,3.153 0.17,3.003 0.359,2.646C0.567,2.254 0.402,1.769 0,1.584" style="fill:rgb(253,245,234);fill-rule:nonzero;"/>
        </g>
        <g transform="matrix(3.63181,0,0,3.38524,1428.55,365.731)">
            <path d="M0,-16.261C0,-16.261 -1.923,-15.454 -3.727,-15.222C-5.529,-14.99 -7.817,-15.985 -9.343,-15.741C-10.868,-15.498 -14.681,-12.829 -14.681,-12.829L-16.143,-9.27L-17.032,-3.424L-10.486,-0.754C-10.486,-0.754 -8.803,0 -6.07,-1.462C-3.337,-2.924 1.591,-7.173 1.591,-7.173L4.893,-8.889L0,-16.261Z" style="fill:rgb(234,201,184);fill-rule:nonzero;"/>
        </g>
        <g transform="matrix(3.63181,0,0,3.38524,1445.18,458.735)">
            <path d="M0,-10.702L4.46,-9.149C4.46,-9.149 6.8,-6.646 7.231,-5.955C7.663,-5.265 7.231,-3.193 7.231,-3.193C7.231,-3.193 8.785,-1.639 8.699,-0.172C8.612,1.295 6.279,3.28 3.346,3.366C0.413,3.453 -2.694,3.798 -3.385,3.366C-4.075,2.935 -7.355,-3.668 -7.355,-3.668L-12.016,-10.098L-2.953,-14.5L0,-10.702Z" style="fill:rgb(234,201,184);fill-rule:nonzero;"/>
        </g>
        <g transform="matrix(3.63181,0,0,3.38524,1102.02,532.133)">
            <path d="M0,60.37C0,60.37 -1.454,45.1 2.014,40.335C5.48,35.568 24.221,2.628 25.806,1.314C27.391,0 60.606,18.31 60.606,18.31C60.606,18.31 56.878,27.053 56.489,27.224C56.101,27.393 31.473,18.439 31.473,18.439L27.181,32.201L33.555,29.746L39.271,42.764C39.271,42.764 32.495,47.026 20.983,52.7C9.472,58.373 0,60.37 0,60.37" style="fill:rgb(128,193,216);fill-rule:nonzero;"/>
        </g>
        <g transform="matrix(3.63181,0,0,3.38524,1148.55,754.121)">
            <path d="M0,19.749C-0.153,20.144 16.528,32.414 22.971,30.203C29.412,27.991 54.48,21.77 57.895,19.345C61.309,16.919 80.109,-5.401 80.109,-5.401L74.141,-12.665L54.324,5.272L40.653,9.508L34.191,-5.205C34.191,-5.205 6.464,3.165 0,19.749" style="fill:rgb(128,193,216);fill-rule:nonzero;"/>
        </g>
        <g transform="matrix(3.63181,0,0,3.38524,1537.34,908.664)">
            <path d="M0,-45.319L14.788,-47.283L20.365,-27.08L58.172,-43.682L45.059,-56.663L54.048,-67.612L83.105,-43.755C83.105,-43.755 91.621,-18.628 91.397,-15.852C91.175,-13.077 81.088,8.033 65.789,15.162C50.489,22.293 29.759,13.069 27.005,12.425C24.251,11.782 7.908,-8.966 7.604,-9.657C7.301,-10.348 0,-45.319 0,-45.319" style="fill:rgb(243,148,117);fill-rule:nonzero;"/>
        </g>
        <g transform="matrix(3.63181,0,0,3.38524,1592.4,260.057)">
            <path d="M0,5.192C-1.878,-4.832 -2.737,-27.316 -4.611,-30.508C-7.062,-34.683 -12.723,-40.537 -21.666,-44.023C-21.666,-44.023 -59.873,-47.323 -68.627,-41.934C-77.381,-36.546 -80.569,10.774 -80.55,12.928C-80.531,15.082 -51.119,52.515 -51.119,52.515L-41.786,45.199L-60.663,14.184L-18.713,-4.238L-17.961,0.992L-47.25,14.506L-41.442,24.895L-3.935,11.904C-1.134,10.959 0.544,8.097 0,5.192" style="fill:rgb(231,74,95);fill-rule:nonzero;"/>
        </g>
        <g transform="matrix(-3.55257,0.703294,0.75452,3.31138,1289.99,330.812)">
            <path d="M-29.999,35.096L-26.384,35.096L-4.416,-6.59L-24.881,37.603L-29.999,35.096Z" style="fill:rgb(201,54,79);fill-rule:nonzero;"/>
        </g>
        <g transform="matrix(3.63181,0,0,3.38524,1592.55,344.332)">
            <path d="M0,-17.801C-0.074,-17.697 -1.841,-15.256 -4.547,-14.23C-7.312,-13.181 -39.729,-3.267 -39.729,-3.267L-43.566,-3.727L-41.483,0L-3.976,-12.99C-1.795,-13.727 -0.301,-15.626 0,-17.801" style="fill:rgb(201,54,79);fill-rule:nonzero;"/>
        </g>
        <g transform="matrix(3.63181,0,0,3.38524,1372.09,151.692)">
            <path d="M0,46.195L6.014,1.78C6.014,1.78 23.3,0 28.13,1.78C32.96,3.559 40.179,6.786 40.179,6.786L41.95,27.773L0,46.195Z" style="fill:rgb(201,54,79);fill-rule:nonzero;"/>
        </g>
        <g transform="matrix(-3.30225,1.40907,1.5117,3.07805,1423.77,226.871)">
            <path d="M5.594,-34.394C5.594,-34.394 1.944,-20.416 6.339,-10.339C10.734,-0.262 5.594,-2.94 5.594,-2.94L-1.032,-21.994C-1.032,-21.994 0.547,-29.846 5.594,-34.394" style="fill:rgb(201,54,79);fill-rule:nonzero;"/>
        </g>
        <g transform="matrix(3.63181,0,0,3.38524,1519.43,138.426)">
            <path d="M0,15.338C0,15.338 -2.017,3.538 3.703,-2.182C3.703,-2.182 -3.542,0.996 -5.702,9.257C-7.863,17.52 0,15.338 0,15.338" style="fill:rgb(201,54,79);fill-rule:nonzero;"/>
        </g>
        <g transform="matrix(3.63181,0,0,3.38524,1490.2,203.983)">
            <path d="M0,-12.364C0.301,-12.474 -0.232,-4.314 -0.232,-4.314L-2.908,-0.147C-2.908,-0.147 -9.134,4.3 -10.3,4.842C-11.467,5.383 -18.256,5.485 -18.256,5.485C-18.256,5.485 -20.288,6.458 -21.248,6.013C-22.208,5.569 -23.222,2.186 -23.222,2.186C-23.222,2.186 -26.985,0.154 -26.854,-7.632C-26.722,-15.417 -16.82,-18.822 -16.82,-18.822L0,-12.364Z" style="fill:rgb(234,201,184);fill-rule:nonzero;"/>
        </g>
        <g transform="matrix(3.63181,0,0,3.38524,1402.22,129.794)">
            <path d="M0,-4.915C0,-4.915 -2.309,-5.86 -3.625,-4.097C-4.941,-2.334 -2.714,0.945 -2.714,0.945L0,-4.915Z" style="fill:rgb(234,201,184);fill-rule:nonzero;"/>
        </g>
        <g transform="matrix(3.63181,0,0,3.38524,1513.74,186.755)">
            <path d="M0,-6.894C0,-6.894 1.713,-6.413 1.73,-4.969C1.749,-3.525 -1.577,0 -3.887,-0.263C-6.196,-0.524 0,-6.894 0,-6.894" style="fill:rgb(234,201,184);fill-rule:nonzero;"/>
        </g>
        <g transform="matrix(3.63181,0,0,3.38524,1388.7,98.7358)">
            <path d="M0,21.015C0,21.015 -1.3,6.928 3.299,0.234C7.897,-6.46 12.932,-7.624 12.932,-7.624C12.932,-7.624 17.705,-10.741 23.716,-8.623C29.728,-6.504 34.963,-0.916 36.896,4.974C38.83,10.864 36.044,19.396 32.789,23.549C29.533,27.702 25.039,30.943 25.039,30.943C25.039,30.943 26.898,25.482 24.726,25.142C24.726,25.142 16.002,31.756 10.178,31.39C4.354,31.023 3.237,29.84 3.237,29.84C3.237,29.84 10.352,28.14 13.319,25.686C13.319,25.686 5.013,28.165 1.225,28.075L4.025,24.544L2.094,25.481C2.094,25.481 0.145,23.748 0,21.015" style="fill:rgb(57,63,75);fill-rule:nonzero;"/>
        </g>
        <g transform="matrix(3.63181,0,0,3.38524,1220.08,753.551)">
            <path d="M0,4.926C0,4.926 0.776,8.069 -0.622,10.279C-2.02,12.488 -4.689,12.934 -6.469,15.412C-8.248,17.891 -11.731,22.762 -16.631,22.868C-21.53,22.975 -25.217,17.827 -28.076,16.746C-30.937,15.666 -38.245,17.7 -40.533,13.124C-42.821,8.548 -37.419,0.859 -40.978,-3.082C-44.537,-7.022 -44.018,-11.75 -41.995,-14.012C-38.705,-17.693 -34.368,-18.049 -29.348,-15.188C-24.327,-12.329 -21.467,-14.458 -19.179,-15.22C-16.892,-15.983 -13.015,-16.266 -11.553,-15.616C-10.091,-14.967 -9.101,-12.399 -9.101,-12.399L0,4.926Z" style="fill:rgb(17,17,78);fill-rule:nonzero;"/>
        </g>
        <g transform="matrix(3.63181,0,0,3.38524,1223.89,687.536)">
            <path d="M0,-16.16L-6.374,-13.705L-10.283,-3.791C-10.283,-3.791 -4.087,-4.648 -2.656,-3.791C-1.99,-3.39 -0.764,-1.695 0.354,0C3.828,-1.955 5.717,-3.142 5.717,-3.142L0,-16.16Z" style="fill:rgb(99,173,193);fill-rule:nonzero;"/>
        </g>
        <g transform="matrix(3.63181,0,0,3.38524,1272.73,798.948)">
            <path d="M0,-18.447C0,-18.447 -1.706,-17.932 -4.37,-16.905C-3.215,-14.244 -1.517,-9.746 -1.9,-7.054C-2.473,-3.051 -7.731,0 -7.731,0L6.462,-3.734L0,-18.447Z" style="fill:rgb(99,173,193);fill-rule:nonzero;"/>
        </g>
        <g transform="matrix(2.58166,2.38101,2.55443,-2.40638,1664.29,839.498)">
            <path d="M9.704,-4.905C9.704,-4.905 3.07,-1.798 2.064,2.89C0.892,8.353 4.578,16.33 9.704,18.575C17.215,21.862 18.575,19.725 18.575,19.725L9.704,-4.905Z" style="fill:rgb(250,209,177);fill-rule:nonzero;"/>
        </g>
        <g transform="matrix(3.63181,0,0,3.38524,1776.14,934.688)">
            <path d="M0,-28.438C0,-28.438 -5.529,-34.406 -13.753,-33.091C-21.977,-31.778 -23.805,-30.048 -23.805,-30.048L-21.667,-30.108L-25.485,-27.188C-25.485,-27.188 -30.007,-19.794 -29.886,-14.541C-29.766,-9.287 -27.278,-5.925 -27.278,-5.925C-27.278,-5.925 -26.309,-0.782 -23.878,1.422C-21.447,3.625 -15.595,5.968 -11.178,5.512C-6.76,5.057 -2.912,2.716 -2.912,2.716C-2.912,2.716 0.832,2.464 3.64,-0.883C6.446,-4.232 6.235,-7.841 6.235,-7.841C6.235,-7.841 8.908,-11.149 9.051,-13.103C9.194,-15.056 7.7,-19.992 7.7,-19.992C7.7,-19.992 5.82,-28.142 0,-28.438" style="fill:rgb(111,37,30);fill-rule:nonzero;"/>
        </g>
        <g transform="matrix(3.63181,0,0,3.38524,1611.3,818.201)">
            <path d="M0,-0.357L2.302,9.089L8.593,16.603C8.593,16.603 10.309,6.074 18.507,-0.712C26.706,-7.499 41.005,-5.783 43.103,-5.687C45.199,-5.592 53.207,3.773 53.207,3.773L48.822,-7.908L37.807,-16.96L0,-0.357Z" style="fill:rgb(226,129,102);fill-rule:nonzero;"/>
        </g>
        <g transform="matrix(-1.24642,-3.17964,-3.41123,1.1618,1657.39,850.443)">
            <path d="M-26.234,-49.824C-26.235,-49.823 -39.629,-28.442 -38.429,-13.668C-37.378,-0.72 -28.432,12.201 -26.234,15.2C-29.31,11.325 -42.981,-3.933 -41.629,-19.639C-40.599,-31.609 -32.011,-43.528 -26.234,-49.824" style="fill:rgb(226,129,102);fill-rule:nonzero;"/>
        </g>
        <g transform="matrix(3.63181,0,0,3.38524,1466.68,442.001)">
            <path d="M0,1.761L-7.271,-1.577C-7.638,-1.745 -8.071,-1.635 -8.313,-1.314L-8.387,-1.217C-8.719,-0.776 -8.554,-0.14 -8.048,0.083L-0.703,3.324C-0.292,3.506 0.189,3.339 0.4,2.942C0.631,2.507 0.448,1.967 0,1.761" style="fill:rgb(253,245,234);fill-rule:nonzero;"/>
        </g>
        <g transform="matrix(-3.63181,0,0,3.38524,3281.17,-467.61)">
            <rect x="404.356" y="261.239" width="44.868" height="32.158" style="fill:white;"/>
        </g>
        <g transform="matrix(-3.63181,0,0,3.38524,3277.01,-475.68)">
            <rect x="404.355" y="263.623" width="43.725" height="29.774" style="fill:rgb(196,204,215);"/>
        </g>
        <g transform="matrix(-3.63181,0,0,3.38524,3271.47,-486.973)">
            <rect x="403.021" y="264.099" width="44.868" height="32.158" style="fill:white;"/>
        </g>
        <g transform="matrix(-3.58935,0.51614,0.553734,3.34567,1656.59,331.382)">
            <rect x="-47.057" y="-3.608" width="44.868" height="32.158" style="fill:white;"/>
        </g>
        <g transform="matrix(-0.553646,-3.34568,-3.58937,0.516058,1776.79,270.949)">
            <rect x="-38.763" y="-10.482" width="29.773" height="43.724" style="fill:rgb(196,204,215);"/>
        </g>
        <g transform="matrix(-3.58936,0.516066,0.553654,3.34568,1650.21,322.499)">
            <rect x="-47.058" y="-3.607" width="44.869" height="32.157" style="fill:white;"/>
        </g>
        <g transform="matrix(3.63181,0,0,3.38524,1222.08,476.795)">
            <path d="M0,3.912C0.392,4.543 1.22,4.736 1.851,4.345L6.497,1.459L5.079,-0.824L0.433,2.061C-0.198,2.453 -0.392,3.282 0,3.912" style="fill:rgb(241,106,68);fill-rule:nonzero;"/>
        </g>
        <g transform="matrix(0,-3.38524,-3.63181,0,1261.29,439.382)">
            <path d="M-8.27,-8.27C-12.837,-8.27 -16.54,-4.567 -16.54,0.001C-16.54,4.568 -12.837,8.27 -8.27,8.27C-3.703,8.27 0,4.568 0,0.001C0,-4.567 -3.703,-8.27 -8.27,-8.27" style="fill:rgb(241,106,68);fill-rule:nonzero;"/>
        </g>
        <g transform="matrix(3.63181,0,0,3.38524,1233.6,440.457)">
            <path d="M0,6.586C0.096,5.809 0.333,5.049 0.666,4.333C1.009,3.621 1.462,2.956 2.013,2.378C3.117,1.226 4.59,0.43 6.167,0.129C6.365,0.098 6.564,0.075 6.763,0.048C6.961,0.015 7.163,0.024 7.362,0.011C7.462,0.008 7.562,0 7.662,0.002L7.963,0.013C8.163,0.015 8.361,0.042 8.561,0.063C9.354,0.163 10.134,0.386 10.853,0.731C11.572,1.072 12.242,1.519 12.814,2.066C13.382,2.616 13.878,3.24 14.246,3.93C13.358,2.644 12.126,1.627 10.717,1.034C9.313,0.426 7.737,0.282 6.244,0.546C4.751,0.825 3.352,1.556 2.247,2.611C1.153,3.68 0.364,5.065 0,6.586" style="fill:rgb(248,251,252);fill-rule:nonzero;"/>
        </g>
        <g transform="matrix(0,-3.38524,-3.63181,0,1261.29,444.755)">
            <path d="M-6.683,-6.683C-10.374,-6.683 -13.366,-3.691 -13.366,0.001C-13.366,3.691 -10.374,6.683 -6.683,6.683C-2.992,6.683 0,3.691 0,0.001C0,-3.691 -2.992,-6.683 -6.683,-6.683" style="fill:rgb(147,96,61);fill-rule:nonzero;"/>
        </g>
        <g transform="matrix(0.276847,3.37539,3.62125,-0.258051,1258.07,450.258)">
            <path d="M6.514,-6.035C9.334,-5.432 11.543,-3.034 11.774,-0.012C12.032,3.363 9.735,6.343 6.514,7.031C3.693,6.426 1.485,4.028 1.254,1.006C0.996,-2.369 3.293,-5.348 6.514,-6.035" style="fill:rgb(164,112,76);fill-rule:nonzero;"/>
        </g>
        <g transform="matrix(3.63181,0,0,3.38524,181.125,-282.653)">
            <g opacity="0.5">
                <g transform="matrix(1,0,0,1,302.077,227.009)">
                    <path d="M0,-8.4C-0.031,-8.45 -0.098,-8.464 -0.147,-8.433C-0.196,-8.401 -0.211,-8.336 -0.18,-8.286C0.358,-7.439 0.643,-6.458 0.643,-5.45C0.643,-2.527 -1.736,-0.149 -4.659,-0.149C-4.941,-0.149 -5.224,-0.171 -5.5,-0.215C-5.558,-0.224 -5.613,-0.185 -5.622,-0.127C-5.632,-0.069 -5.592,-0.014 -5.534,-0.005C-5.246,0.04 -4.952,0.064 -4.659,0.064C-1.619,0.064 0.854,-2.41 0.854,-5.45C0.854,-6.499 0.56,-7.519 0,-8.4" style="fill:rgb(248,251,252);fill-rule:nonzero;"/>
                </g>
                <g transform="matrix(1,0,0,1,294.315,225.077)">
                    <path d="M0,-7.816C0.048,-7.85 0.059,-7.917 0.023,-7.964C-0.011,-8.012 -0.077,-8.023 -0.125,-7.988C-1.556,-6.953 -2.41,-5.282 -2.41,-3.518C-2.41,-2.152 -1.906,-0.841 -0.993,0.172C-0.972,0.195 -0.943,0.207 -0.914,0.207C-0.889,0.207 -0.863,0.198 -0.843,0.18C-0.799,0.141 -0.796,0.074 -0.835,0.03C-1.714,-0.945 -2.197,-2.205 -2.197,-3.518C-2.197,-5.214 -1.376,-6.82 0,-7.816" style="fill:rgb(248,251,252);fill-rule:nonzero;"/>
                </g>
                <g transform="matrix(1,0,0,1,297.418,221.963)">
                    <path d="M0,-3.827C0.171,-3.827 0.342,-3.814 0.509,-3.789C0.567,-3.782 0.621,-3.821 0.63,-3.879C0.639,-3.937 0.599,-3.991 0.54,-4C0.363,-4.026 0.182,-4.04 0,-4.04C-2.005,-4.04 -3.636,-2.409 -3.636,-0.404C-3.636,-0.228 -3.623,-0.051 -3.598,0.122C-3.59,0.175 -3.544,0.213 -3.492,0.213C-3.487,0.213 -3.482,0.213 -3.478,0.212C-3.419,0.204 -3.379,0.15 -3.387,0.091C-3.411,-0.072 -3.423,-0.238 -3.423,-0.404C-3.423,-2.291 -1.887,-3.827 0,-3.827" style="fill:rgb(248,251,252);fill-rule:nonzero;"/>
                </g>
                <g transform="matrix(1,0,0,1,300.077,224.985)">
                    <path d="M0,-0.947C0.041,-0.99 0.038,-1.057 -0.005,-1.097C-0.048,-1.137 -0.115,-1.135 -0.155,-1.092C-0.801,-0.4 -1.713,-0.003 -2.659,-0.003C-3.615,-0.003 -4.534,-0.407 -5.181,-1.112C-5.221,-1.155 -5.288,-1.157 -5.331,-1.118C-5.374,-1.078 -5.377,-1.011 -5.338,-0.968C-4.65,-0.219 -3.674,0.21 -2.659,0.21C-1.654,0.21 -0.685,-0.212 0,-0.947" style="fill:rgb(248,251,252);fill-rule:nonzero;"/>
                </g>
                <g transform="matrix(1,0,0,1,298.968,221.719)">
                    <path d="M0,-3.213C1.156,-2.625 1.874,-1.456 1.874,-0.16C1.874,-0.072 1.87,0.015 1.863,0.101C1.859,0.16 1.903,0.211 1.962,0.216L1.97,0.216C2.024,0.216 2.071,0.174 2.075,0.118C2.083,0.026 2.086,-0.067 2.086,-0.16C2.086,-1.536 1.324,-2.778 0.097,-3.402C0.045,-3.429 -0.02,-3.408 -0.046,-3.356C-0.072,-3.304 -0.052,-3.24 0,-3.213" style="fill:rgb(248,251,252);fill-rule:nonzero;"/>
                </g>
                <g transform="matrix(1,0,0,1,297.418,222.838)">
                    <path d="M0,1.542C0.998,1.542 1.901,1.031 2.417,0.176C2.448,0.126 2.432,0.061 2.381,0.03C2.331,0 2.266,0.016 2.235,0.066C1.758,0.857 0.923,1.329 0,1.329C-0.059,1.329 -0.106,1.377 -0.106,1.436C-0.106,1.494 -0.059,1.542 0,1.542" style="fill:rgb(248,251,252);fill-rule:nonzero;"/>
                </g>
                <g transform="matrix(1,0,0,1,299.263,219.322)">
                    <path d="M0,0.392C0.042,0.434 0.109,0.434 0.15,0.392C0.192,0.35 0.192,0.284 0.15,0.242C-0.383,-0.291 -1.091,-0.584 -1.845,-0.584C-2.844,-0.584 -3.777,-0.048 -4.282,0.816C-4.312,0.867 -4.295,0.932 -4.244,0.961C-4.227,0.971 -4.209,0.976 -4.19,0.976C-4.154,0.976 -4.118,0.957 -4.099,0.923C-3.632,0.124 -2.769,-0.372 -1.845,-0.372C-1.147,-0.372 -0.492,-0.1 0,0.392" style="fill:rgb(248,251,252);fill-rule:nonzero;"/>
                </g>
            </g>
        </g>
        <g transform="matrix(3.63181,0,0,3.38524,1748.76,229.907)">
            <path d="M0,-5.244C-0.525,-5.769 -1.376,-5.769 -1.901,-5.244L-5.769,-1.376L-3.868,0.525L0,-3.343C0.524,-3.868 0.524,-4.719 0,-5.244" style="fill:rgb(241,106,68);fill-rule:nonzero;"/>
        </g>
        <g transform="matrix(0,-3.38524,-3.63181,0,1715.28,215.571)">
            <path d="M-8.27,-8.27C-12.837,-8.27 -16.54,-4.567 -16.54,0C-16.54,4.567 -12.837,8.27 -8.27,8.27C-3.703,8.27 0,4.567 0,0C0,-4.567 -3.703,-8.27 -8.27,-8.27" style="fill:rgb(241,106,68);fill-rule:nonzero;"/>
        </g>
        <g transform="matrix(3.63181,0,0,3.38524,1687.59,216.645)">
            <path d="M0,6.586C0.096,5.809 0.333,5.049 0.667,4.333C1.01,3.621 1.462,2.956 2.013,2.378C3.117,1.226 4.591,0.43 6.167,0.128C6.365,0.098 6.564,0.075 6.763,0.047C6.961,0.015 7.163,0.024 7.362,0.011C7.463,0.008 7.562,0 7.663,0.002L7.963,0.013C8.163,0.015 8.362,0.042 8.561,0.063C9.354,0.163 10.134,0.386 10.853,0.731C11.572,1.072 12.242,1.519 12.815,2.065C13.383,2.616 13.878,3.24 14.246,3.93C13.358,2.644 12.126,1.627 10.717,1.034C9.313,0.426 7.737,0.282 6.245,0.546C4.751,0.825 3.353,1.556 2.247,2.611C1.153,3.68 0.364,5.065 0,6.586" style="fill:rgb(248,251,252);fill-rule:nonzero;"/>
        </g>
        <g transform="matrix(0,-3.38524,-3.63181,0,1715.28,220.943)">
            <path d="M-6.683,-6.683C-10.374,-6.683 -13.366,-3.691 -13.366,0C-13.366,3.691 -10.374,6.683 -6.683,6.683C-2.992,6.683 0,3.691 0,0C0,-3.691 -2.992,-6.683 -6.683,-6.683" style="fill:rgb(147,96,61);fill-rule:nonzero;"/>
        </g>
        <g transform="matrix(0.276847,3.37539,3.62125,-0.258051,1712.06,226.446)">
            <path d="M6.514,-6.035C9.334,-5.431 11.542,-3.034 11.774,-0.01C12.032,3.365 9.736,6.343 6.514,7.031C3.694,6.427 1.486,4.03 1.254,1.006C0.996,-2.369 3.293,-5.347 6.514,-6.035" style="fill:rgb(164,112,76);fill-rule:nonzero;"/>
        </g>
        <g transform="matrix(3.63181,0,0,3.38524,181.125,-282.653)">
            <g opacity="0.5">
                <g transform="matrix(1,0,0,1,427.081,160.895)">
                    <path d="M0,-8.4C-0.031,-8.449 -0.098,-8.464 -0.146,-8.433C-0.196,-8.401 -0.211,-8.336 -0.18,-8.286C0.358,-7.439 0.643,-6.458 0.643,-5.449C0.643,-2.526 -1.735,-0.149 -4.658,-0.149C-4.94,-0.149 -5.224,-0.171 -5.5,-0.215C-5.558,-0.224 -5.612,-0.184 -5.622,-0.127C-5.631,-0.068 -5.592,-0.014 -5.533,-0.005C-5.246,0.041 -4.952,0.064 -4.658,0.064C-1.618,0.064 0.854,-2.409 0.854,-5.449C0.854,-6.498 0.56,-7.518 0,-8.4" style="fill:rgb(248,251,252);fill-rule:nonzero;"/>
                </g>
                <g transform="matrix(1,0,0,1,419.318,158.963)">
                    <path d="M0,-7.816C0.048,-7.85 0.059,-7.917 0.024,-7.964C-0.011,-8.012 -0.077,-8.023 -0.124,-7.988C-1.556,-6.953 -2.409,-5.282 -2.409,-3.518C-2.409,-2.152 -1.906,-0.842 -0.992,0.172C-0.972,0.195 -0.942,0.207 -0.914,0.207C-0.889,0.207 -0.862,0.198 -0.843,0.18C-0.799,0.141 -0.796,0.073 -0.835,0.03C-1.713,-0.945 -2.197,-2.205 -2.197,-3.518C-2.197,-5.214 -1.376,-6.82 0,-7.816" style="fill:rgb(248,251,252);fill-rule:nonzero;"/>
                </g>
                <g transform="matrix(1,0,0,1,422.423,155.85)">
                    <path d="M0,-3.827C0.17,-3.827 0.342,-3.815 0.508,-3.79C0.567,-3.782 0.62,-3.821 0.629,-3.879C0.638,-3.937 0.598,-3.991 0.54,-4C0.362,-4.026 0.181,-4.04 0,-4.04C-2.005,-4.04 -3.636,-2.409 -3.636,-0.404C-3.636,-0.228 -3.623,-0.051 -3.599,0.122C-3.591,0.175 -3.545,0.213 -3.493,0.213C-3.488,0.213 -3.483,0.213 -3.478,0.212C-3.42,0.203 -3.38,0.15 -3.388,0.091C-3.411,-0.072 -3.424,-0.239 -3.424,-0.404C-3.424,-2.292 -1.888,-3.827 0,-3.827" style="fill:rgb(248,251,252);fill-rule:nonzero;"/>
                </g>
                <g transform="matrix(1,0,0,1,425.082,158.87)">
                    <path d="M0,-0.946C0.04,-0.989 0.037,-1.056 -0.006,-1.096C-0.049,-1.136 -0.115,-1.134 -0.156,-1.091C-0.801,-0.399 -1.714,-0.002 -2.659,-0.002C-3.615,-0.002 -4.535,-0.406 -5.182,-1.111C-5.222,-1.154 -5.289,-1.157 -5.332,-1.117C-5.375,-1.077 -5.378,-1.01 -5.338,-0.967C-4.651,-0.218 -3.675,0.211 -2.659,0.211C-1.655,0.211 -0.686,-0.211 0,-0.946" style="fill:rgb(248,251,252);fill-rule:nonzero;"/>
                </g>
                <g transform="matrix(1,0,0,1,423.973,155.606)">
                    <path d="M0,-3.213C1.155,-2.626 1.873,-1.456 1.873,-0.16C1.873,-0.072 1.869,0.015 1.863,0.101C1.858,0.16 1.902,0.211 1.961,0.216L1.969,0.216C2.024,0.216 2.07,0.173 2.075,0.118C2.082,0.026 2.085,-0.067 2.085,-0.16C2.085,-1.536 1.323,-2.778 0.096,-3.403C0.044,-3.429 -0.021,-3.408 -0.047,-3.356C-0.073,-3.304 -0.053,-3.24 0,-3.213" style="fill:rgb(248,251,252);fill-rule:nonzero;"/>
                </g>
                <g transform="matrix(1,0,0,1,422.423,156.725)">
                    <path d="M0,1.542C0.997,1.542 1.9,1.031 2.417,0.176C2.447,0.126 2.431,0.061 2.381,0.03C2.33,0 2.265,0.016 2.234,0.066C1.758,0.857 0.922,1.329 0,1.329C-0.06,1.329 -0.106,1.376 -0.106,1.436C-0.106,1.494 -0.06,1.542 0,1.542" style="fill:rgb(248,251,252);fill-rule:nonzero;"/>
                </g>
                <g transform="matrix(1,0,0,1,424.267,153.208)">
                    <path d="M0,0.393C0.042,0.435 0.109,0.435 0.15,0.393C0.192,0.351 0.192,0.284 0.15,0.243C-0.382,-0.29 -1.091,-0.584 -1.844,-0.584C-2.844,-0.584 -3.777,-0.047 -4.282,0.817C-4.312,0.868 -4.294,0.933 -4.243,0.962C-4.227,0.972 -4.208,0.977 -4.19,0.977C-4.153,0.977 -4.118,0.958 -4.099,0.924C-3.632,0.125 -2.769,-0.371 -1.844,-0.371C-1.147,-0.371 -0.492,-0.099 0,0.393" style="fill:rgb(248,251,252);fill-rule:nonzero;"/>
                </g>
            </g>
        </g>
        <g transform="matrix(3.63181,0,0,3.38524,1867.4,653.232)">
            <path d="M0,6.076C0.626,5.679 0.812,4.847 0.414,4.222L-2.518,-0.397L-4.787,1.044L-1.855,5.662C-1.457,6.289 -0.627,6.473 0,6.076" style="fill:rgb(241,106,68);fill-rule:nonzero;"/>
        </g>
        <g transform="matrix(0,-3.38524,-3.63181,0,1842.66,607.208)">
            <path d="M-8.27,-8.27C-12.837,-8.27 -16.54,-4.567 -16.54,0.001C-16.54,4.568 -12.837,8.27 -8.27,8.27C-3.703,8.27 0,4.568 0,0.001C0,-4.567 -3.703,-8.27 -8.27,-8.27" style="fill:rgb(241,106,68);fill-rule:nonzero;"/>
        </g>
        <g transform="matrix(3.63181,0,0,3.38524,1814.96,608.281)">
            <path d="M0,6.586C0.096,5.81 0.333,5.05 0.666,4.334C1.009,3.621 1.462,2.956 2.012,2.379C3.116,1.227 4.59,0.43 6.167,0.129C6.365,0.098 6.564,0.075 6.763,0.048C6.961,0.016 7.162,0.024 7.362,0.011C7.462,0.008 7.562,0 7.662,0.002L7.963,0.013C8.163,0.015 8.361,0.042 8.561,0.064C9.354,0.163 10.134,0.387 10.853,0.732C11.572,1.072 12.242,1.52 12.814,2.066C13.382,2.616 13.877,3.24 14.246,3.931C13.358,2.645 12.126,1.627 10.717,1.034C9.313,0.427 7.737,0.282 6.244,0.547C4.751,0.825 3.352,1.557 2.247,2.611C1.153,3.68 0.364,5.065 0,6.586" style="fill:rgb(248,251,252);fill-rule:nonzero;"/>
        </g>
        <g transform="matrix(0,-3.38524,-3.63181,0,1842.66,612.582)">
            <path d="M-6.683,-6.683C-10.373,-6.683 -13.366,-3.692 -13.366,0C-13.366,3.691 -10.373,6.683 -6.683,6.683C-2.992,6.683 0,3.691 0,0C0,-3.692 -2.992,-6.683 -6.683,-6.683" style="fill:rgb(147,96,61);fill-rule:nonzero;"/>
        </g>
        <g transform="matrix(0.276826,3.3754,3.62125,-0.258032,1839.43,618.081)">
            <path d="M6.515,-6.036C9.336,-5.431 11.543,-3.033 11.774,-0.011C12.032,3.364 9.736,6.344 6.515,7.032C3.694,6.427 1.486,4.029 1.255,1.007C0.997,-2.368 3.293,-5.347 6.515,-6.036" style="fill:rgb(164,112,76);fill-rule:nonzero;"/>
        </g>
        <g transform="matrix(3.63181,0,0,3.38524,181.125,-282.653)">
            <g opacity="0.5">
                <g transform="matrix(1,0,0,1,462.152,276.585)">
                    <path d="M0,-8.4C-0.032,-8.45 -0.098,-8.464 -0.147,-8.433C-0.196,-8.402 -0.211,-8.336 -0.18,-8.287C0.357,-7.439 0.642,-6.459 0.642,-5.45C0.642,-2.527 -1.736,-0.149 -4.659,-0.149C-4.941,-0.149 -5.224,-0.171 -5.501,-0.215C-5.558,-0.224 -5.613,-0.185 -5.622,-0.127C-5.632,-0.069 -5.592,-0.014 -5.534,-0.005C-5.246,0.04 -4.952,0.064 -4.659,0.064C-1.619,0.064 0.854,-2.41 0.854,-5.45C0.854,-6.499 0.559,-7.519 0,-8.4" style="fill:rgb(248,251,252);fill-rule:nonzero;"/>
                </g>
                <g transform="matrix(1,0,0,1,454.39,274.653)">
                    <path d="M0,-7.816C0.048,-7.85 0.058,-7.917 0.023,-7.964C-0.011,-8.012 -0.077,-8.023 -0.125,-7.988C-1.556,-6.953 -2.41,-5.282 -2.41,-3.518C-2.41,-2.152 -1.906,-0.841 -0.993,0.172C-0.972,0.196 -0.943,0.207 -0.914,0.207C-0.889,0.207 -0.863,0.198 -0.843,0.18C-0.799,0.14 -0.796,0.074 -0.835,0.03C-1.714,-0.945 -2.197,-2.205 -2.197,-3.518C-2.197,-5.214 -1.376,-6.821 0,-7.816" style="fill:rgb(248,251,252);fill-rule:nonzero;"/>
                </g>
                <g transform="matrix(1,0,0,1,457.493,271.539)">
                    <path d="M0,-3.827C0.171,-3.827 0.342,-3.814 0.509,-3.79C0.567,-3.782 0.621,-3.821 0.63,-3.879C0.639,-3.937 0.599,-3.991 0.54,-4C0.363,-4.026 0.182,-4.04 0,-4.04C-2.005,-4.04 -3.636,-2.409 -3.636,-0.404C-3.636,-0.228 -3.623,-0.052 -3.598,0.122C-3.59,0.175 -3.545,0.213 -3.492,0.213C-3.487,0.213 -3.482,0.213 -3.478,0.212C-3.419,0.203 -3.379,0.15 -3.388,0.091C-3.411,-0.072 -3.423,-0.238 -3.423,-0.404C-3.423,-2.292 -1.888,-3.827 0,-3.827" style="fill:rgb(248,251,252);fill-rule:nonzero;"/>
                </g>
                <g transform="matrix(1,0,0,1,460.152,274.56)">
                    <path d="M0,-0.947C0.04,-0.989 0.038,-1.056 -0.005,-1.096C-0.048,-1.136 -0.115,-1.134 -0.155,-1.092C-0.801,-0.399 -1.713,-0.003 -2.659,-0.003C-3.615,-0.003 -4.534,-0.407 -5.181,-1.111C-5.221,-1.154 -5.288,-1.157 -5.331,-1.118C-5.374,-1.078 -5.377,-1.01 -5.338,-0.968C-4.65,-0.219 -3.674,0.21 -2.659,0.21C-1.654,0.21 -0.686,-0.212 0,-0.947" style="fill:rgb(248,251,252);fill-rule:nonzero;"/>
                </g>
                <g transform="matrix(1,0,0,1,459.043,271.294)">
                    <path d="M0,-3.212C1.155,-2.624 1.873,-1.454 1.873,-0.159C1.873,-0.071 1.87,0.017 1.863,0.102C1.859,0.161 1.903,0.212 1.962,0.217L1.97,0.217C2.024,0.217 2.071,0.175 2.075,0.118C2.083,0.027 2.086,-0.066 2.086,-0.159C2.086,-1.535 1.324,-2.777 0.097,-3.401C0.045,-3.429 -0.02,-3.407 -0.046,-3.356C-0.073,-3.303 -0.052,-3.239 0,-3.212" style="fill:rgb(248,251,252);fill-rule:nonzero;"/>
                </g>
                <g transform="matrix(1,0,0,1,457.493,272.414)">
                    <path d="M0,1.542C0.998,1.542 1.901,1.031 2.417,0.176C2.447,0.126 2.432,0.061 2.381,0.03C2.331,0 2.266,0.016 2.235,0.066C1.758,0.857 0.923,1.329 0,1.329C-0.059,1.329 -0.106,1.377 -0.106,1.436C-0.106,1.494 -0.059,1.542 0,1.542" style="fill:rgb(248,251,252);fill-rule:nonzero;"/>
                </g>
                <g transform="matrix(1,0,0,1,459.338,268.897)">
                    <path d="M0,0.393C0.042,0.435 0.108,0.435 0.15,0.393C0.191,0.352 0.191,0.285 0.15,0.243C-0.383,-0.29 -1.091,-0.584 -1.845,-0.584C-2.844,-0.584 -3.777,-0.046 -4.282,0.817C-4.312,0.868 -4.295,0.933 -4.244,0.962C-4.228,0.972 -4.209,0.977 -4.19,0.977C-4.154,0.977 -4.118,0.957 -4.099,0.924C-3.632,0.125 -2.769,-0.371 -1.845,-0.371C-1.147,-0.371 -0.493,-0.099 0,0.393" style="fill:rgb(248,251,252);fill-rule:nonzero;"/>
                </g>
            </g>
        </g>
        <g transform="matrix(3.63181,0,0,3.38524,1235.36,762.384)">
            <path d="M0,-7.646C-0.187,-8.092 -1.296,-8.272 -2.376,-8.339C-6.486,-15.96 -16.893,-16.227 -16.893,-16.227C-16.893,-16.227 -17.724,-12.962 -13.288,-7.55C-8.853,-2.138 -8.882,8.581 -8.882,8.581C-8.882,8.581 -6.547,7.333 -4.187,4.735C-2.215,2.565 -0.272,-0.625 -1.099,-4.831C-0.443,-5.914 0.201,-7.169 0,-7.646" style="fill:rgb(250,209,177);fill-rule:nonzero;"/>
        </g>
        <g transform="matrix(3.63181,0,0,3.38524,1599.48,758.005)">
            <path d="M0,0.714L-1.04,-3.032C-1.303,-3.98 -2.222,-4.591 -3.198,-4.467L-16.183,-2.809C-17.352,-2.66 -18.132,-1.529 -17.857,-0.384L-16.888,3.657C-16.648,4.655 -15.686,5.305 -14.671,5.153L-1.614,3.201C-0.438,3.026 0.318,1.86 0,0.714" style="fill:rgb(249,225,223);fill-rule:nonzero;"/>
        </g>
        <g transform="matrix(3.63181,0,0,3.38524,1685.1,676.51)">
            <path d="M0,9.895L3.036,12.324C3.805,12.939 4.907,12.896 5.626,12.224L15.185,3.281C16.045,2.476 16.016,1.102 15.123,0.334L11.972,-2.376C11.193,-3.044 10.032,-3.008 9.298,-2.291L-0.146,6.933C-0.997,7.764 -0.929,9.152 0,9.895" style="fill:rgb(249,225,223);fill-rule:nonzero;"/>
        </g>
    </g>
</svg>
