<?xml version="1.0" encoding="UTF-8" standalone="no"?>
<!DOCTYPE svg PUBLIC "-//W3C//DTD SVG 1.1//EN" "http://www.w3.org/Graphics/SVG/1.1/DTD/svg11.dtd">
<svg width="100%" height="100%" viewBox="0 0 2018 544" version="1.1" xmlns="http://www.w3.org/2000/svg" xmlns:xlink="http://www.w3.org/1999/xlink" xml:space="preserve" xmlns:serif="http://www.serif.com/" style="fill-rule:evenodd;clip-rule:evenodd;stroke-linecap:round;stroke-miterlimit:10;">
    <g transform="matrix(2.56887,0,0,2.56887,-1228.69,-1014.29)">
        <g transform="matrix(-1,0,0,1,1612.23,338.535)">
            <rect x="430.196" y="144.558" width="179.121" height="121.151" style="fill:rgb(255,194,83);"/>
        </g>
        <g transform="matrix(0.738723,0.674009,0.674009,-0.738723,1053.12,433.12)">
            <path d="M-3.407,-70.756L110.402,-70.756C114.61,-70.756 118.125,-67.55 118.509,-63.359L128.914,49.973L-3.407,-70.756Z" style="fill:rgb(224,151,54);fill-rule:nonzero;"/>
        </g>
        <g transform="matrix(1,0,0,1,1182.03,510.769)">
            <path d="M0,93.475L-89.56,0L0,85.515L0,93.475Z" style="fill:rgb(224,151,54);fill-rule:nonzero;"/>
        </g>
        <g transform="matrix(1,0,0,1,1002.91,510.769)">
            <path d="M0,93.475L89.561,0L0,85.515L0,93.475Z" style="fill:rgb(224,151,54);fill-rule:nonzero;"/>
        </g>
        <g transform="matrix(0.763877,0.645361,0.645361,-0.763877,1047.69,433.942)">
            <path d="M-2.488,-66.446L105.886,-66.446C111.008,-66.446 115.383,-62.75 116.238,-57.7L134.339,49.151L-2.488,-66.446Z" style="fill:rgb(255,200,84);fill-rule:nonzero;"/>
        </g>
        <g transform="matrix(1,0,0,1,1167.72,557.719)">
            <path d="M0,46.525C0,46.525 -5.668,43.964 -5.254,37.881C-4.839,31.798 -0.691,30.554 2.903,28.342C6.498,26.13 6.774,22.397 6.913,17.835C7.051,13.272 10.092,8.71 16.175,8.986C22.259,9.263 24.505,10.507 28.912,5.254C33.319,0 39.264,0.138 41.752,3.042C44.241,5.945 44.403,10.938 40.626,14.385C36.034,18.575 34.846,19.63 33.519,24.24C31.718,30.494 34.315,36.589 32.003,39.496C28.912,43.381 25.577,42.426 22.397,43.688C19.217,44.95 19.102,46.525 19.102,46.525L0,46.525Z" style="fill:rgb(64,199,167);fill-rule:nonzero;"/>
        </g>
        <g transform="matrix(-0.582186,0.813056,0.813056,0.582186,1197.68,607.485)">
            <path d="M-38.371,-19.718C-28.544,-24.124 -5.706,-27.68 10.133,-19.718" style="fill:none;fill-rule:nonzero;stroke:rgb(59,85,206);stroke-width:0.41px;"/>
        </g>
        <g transform="matrix(0,1,1,0,1065.41,422.402)">
            <path d="M2.788,-2.789C1.248,-2.789 0,-1.54 0,0C0,1.54 1.248,2.788 2.788,2.788C4.328,2.788 5.577,1.54 5.577,0C5.577,-1.54 4.328,-2.789 2.788,-2.789" style="fill:rgb(59,85,206);fill-rule:nonzero;"/>
        </g>
        <g transform="matrix(1,0,0,1,1035.24,522.749)">
            <path d="M0,-6.994C-0.378,-6.567 -0.419,-5.531 1.348,-4.241C3.115,-2.95 6.75,-2.44 8.227,-2.377C9.705,-2.314 10.663,-2.517 12.647,-1.576C14.631,-0.635 18.1,0 19.349,-0.626C19.809,-0.955 19.774,-1.873 19.774,-1.873L0,-6.994Z" style="fill:rgb(170,238,237);fill-rule:nonzero;"/>
        </g>
        <g transform="matrix(1,0,0,1,1055.44,520.168)">
            <path d="M0,-6.008C-0.059,-4.506 0.295,-0.849 -0.435,0.708C-2.203,1.596 -5.365,0.923 -7.579,-0.24C-9.792,-1.403 -11.742,-0.594 -14.741,-1.134C-17.684,-1.664 -19.909,-3.055 -20.208,-4.413C-20.535,-5.894 -15.218,-5.697 -11.508,-5.925C-7.356,-6.181 -4.9,-7.604 -4.9,-7.604L0,-6.008Z" style="fill:rgb(30,65,116);fill-rule:nonzero;"/>
        </g>
        <g transform="matrix(1,0,0,1,572.714,248.802)">
            <clipPath id="_clip1">
                <path d="M471.222,265.44C467.511,265.669 462.195,265.472 462.522,266.953C462.82,268.311 465.046,269.702 467.989,270.232C469.207,270.451 470.252,270.449 471.212,270.445C472.615,270.441 473.836,270.435 475.15,271.126C477.365,272.289 480.527,272.962 482.296,272.074C483.025,270.516 482.67,266.859 482.729,265.357L477.83,263.761C477.83,263.761 475.374,265.185 471.222,265.44Z" clip-rule="nonzero"/>
            </clipPath>
            <g clip-path="url(#_clip1)">
                <g transform="matrix(-0.319575,-0.947561,-0.947561,0.319575,476.643,264.206)">
                    <path d="M-2.069,1.485C-2.069,1.485 0.008,1.022 1.067,1.485" style="fill:none;fill-rule:nonzero;stroke:rgb(170,238,237);stroke-width:0.21px;"/>
                </g>
                <g transform="matrix(-0.319575,-0.947561,-0.947561,0.319575,473.762,264.615)">
                    <path d="M-2.069,1.485C-2.069,1.485 0.008,1.022 1.067,1.485" style="fill:none;fill-rule:nonzero;stroke:rgb(170,238,237);stroke-width:0.21px;"/>
                </g>
                <g transform="matrix(-0.319575,-0.947561,-0.947561,0.319575,470.881,265.024)">
                    <path d="M-2.069,1.485C-2.069,1.485 0.008,1.022 1.067,1.485" style="fill:none;fill-rule:nonzero;stroke:rgb(170,238,237);stroke-width:0.21px;"/>
                </g>
            </g>
        </g>
        <g transform="matrix(1,0,0,1,1057.01,513.886)">
            <path d="M0,-4.967L-1.562,0.274C-1.562,0.274 -2.277,0.334 -2.632,0.592C-2.987,0.851 -3.625,1.837 -4.095,1.744C-5.959,1.375 -6.462,-1.323 -6.462,-1.323L-5.14,-6.804L0,-4.967Z" style="fill:rgb(255,154,141);fill-rule:nonzero;"/>
        </g>
        <g transform="matrix(1,0,0,1,1083.96,509.726)">
            <path d="M0,-47.215L-0.709,-41.691L-19.983,-42.085C-19.983,-42.085 -24.522,-42.173 -25.867,-37.561C-27.213,-32.95 -32.248,-1.997 -32.248,-1.997C-32.248,-1.997 -29.541,0 -26.789,-0.435C-26.789,-0.435 -17.702,-19.23 -16.401,-24.393C-15.1,-29.556 -15.754,-33.91 -15.754,-33.91L7.479,-35.928L0,-47.215Z" style="fill:rgb(30,65,116);fill-rule:nonzero;"/>
        </g>
        <g transform="matrix(1,0,0,1,1055.91,519.391)">
            <path d="M0,8.83C0.028,9.4 0.724,10.168 2.889,9.855C5.054,9.542 8.009,7.365 9.11,6.377C10.21,5.389 10.753,4.573 12.829,3.859C14.906,3.144 17.829,1.172 18.284,-0.149C18.383,-0.706 17.716,-1.338 17.716,-1.338L0,8.83Z" style="fill:rgb(170,238,237);fill-rule:nonzero;"/>
        </g>
        <g transform="matrix(1,0,0,1,1069.24,528.982)">
            <path d="M0,-16.034C1.008,-14.919 3.819,-12.552 4.386,-10.929C3.743,-9.058 1.012,-7.327 -1.384,-6.611C-3.779,-5.894 -4.607,-3.953 -7.128,-2.242C-9.603,-0.562 -12.166,0 -13.329,-0.762C-14.599,-1.593 -10.661,-5.169 -8.168,-7.927C-5.379,-11.013 -4.619,-13.749 -4.619,-13.749L0,-16.034Z" style="fill:rgb(30,65,116);fill-rule:nonzero;"/>
        </g>
        <g transform="matrix(1,0,0,1,572.714,248.802)">
            <clipPath id="_clip2">
                <path d="M491.903,266.432C491.903,266.432 491.143,269.167 488.354,272.253C485.861,275.011 481.924,278.587 483.193,279.419C484.356,280.18 486.92,279.618 489.394,277.939C491.915,276.228 492.743,274.286 495.139,273.57C497.534,272.853 500.266,271.123 500.909,269.251C500.341,267.628 497.53,265.261 496.522,264.146L491.903,266.432Z" clip-rule="nonzero"/>
            </clipPath>
            <g clip-path="url(#_clip2)">
                <g transform="matrix(-0.891086,-0.453835,-0.453835,0.891086,490.216,267.863)">
                    <path d="M-2.965,0.711C-2.965,0.711 -0.888,0.247 0.171,0.711" style="fill:none;fill-rule:nonzero;stroke:rgb(170,238,237);stroke-width:0.21px;"/>
                </g>
                <g transform="matrix(-0.891086,-0.453835,-0.453835,0.891086,488.443,270.17)">
                    <path d="M-2.965,0.711C-2.965,0.711 -0.888,0.247 0.171,0.711" style="fill:none;fill-rule:nonzero;stroke:rgb(170,238,237);stroke-width:0.21px;"/>
                </g>
                <g transform="matrix(-0.891086,-0.453835,-0.453835,0.891086,486.67,272.477)">
                    <path d="M-2.965,0.711C-2.965,0.711 -0.888,0.247 0.171,0.711" style="fill:none;fill-rule:nonzero;stroke:rgb(170,238,237);stroke-width:0.21px;"/>
                </g>
            </g>
        </g>
        <g transform="matrix(1,0,0,1,1068.39,516.81)">
            <path d="M0,-8.461L0.846,-3.862C0.846,-3.862 0.378,-3.319 0.305,-2.886C0.232,-2.453 0.466,-1.302 0.065,-1.04C-1.526,0 -3.772,-1.577 -3.772,-1.577L-5.628,-7.265L0,-8.461Z" style="fill:rgb(255,154,141);fill-rule:nonzero;"/>
        </g>
        <g transform="matrix(1,0,0,1,1098.46,510.266)">
            <path d="M0,-50.06C0.705,-48.25 2.28,-46.095 3.271,-44.41C4.262,-42.725 7.319,-38.235 5.551,-33.506C3.655,-28.434 -0.558,-27.173 -4.919,-27.173L-15.067,-27.173C-18.041,-27.173 -36.323,-31.667 -36.323,-31.667C-36.323,-31.667 -34.214,-30.455 -33.18,-27.173C-32.147,-23.891 -30.068,-1.917 -30.068,-1.917C-31.415,-0.559 -33.303,0 -35.696,-0.189C-35.696,-0.189 -41.173,-17.232 -43.448,-23.537C-45.824,-30.125 -48.479,-36.543 -47.965,-39.387C-47.246,-43.375 -40.335,-43.494 -34.628,-43.296C-28.922,-43.097 -15.786,-42.604 -13.115,-42.98L-14.5,-47.755L0,-50.06Z" style="fill:rgb(133,184,237);fill-rule:nonzero;"/>
        </g>
        <g transform="matrix(1,0,0,1,1104.01,492.739)">
            <path d="M0,-15.979C1.768,-20.707 -1.289,-25.198 -2.28,-26.883C-3.271,-28.568 -4.846,-30.723 -5.551,-32.533L-20.05,-30.228L-19.165,-27.175C-19.165,-27.175 -11.125,-26.072 -7.619,-30.228C-7.619,-30.228 -5.056,-26.331 -4.313,-23.992C-3.288,-20.768 -3.568,-15.537 -9.882,-14.28C-16.196,-13.023 -39.501,-16.451 -42.586,-16.794C-45.671,-17.137 -44.643,-15.355 -42.929,-11.732C-41.215,-8.11 -40.497,-1.61 -38.955,6.171C-37.971,11.138 -36.86,16.554 -36.86,16.554C-36.405,16.295 -35.987,15.987 -35.619,15.611C-35.619,15.611 -37.697,-6.364 -38.731,-9.646C-39.764,-12.927 -41.874,-14.14 -41.874,-14.14C-41.874,-14.14 -23.592,-9.646 -20.618,-9.646L-10.47,-9.646C-6.109,-9.646 -1.896,-10.907 0,-15.979" style="fill:rgb(78,126,172);fill-rule:nonzero;"/>
        </g>
        <g transform="matrix(1,0,0,1,572.714,248.802)">
            <clipPath id="_clip3">
                <path d="M511.244,213.708L512.628,218.484C509.958,218.86 496.822,218.367 491.116,218.169C485.409,217.97 478.499,218.089 477.779,222.077C477.265,224.921 480.005,231.391 482.296,237.926C484.513,244.252 490.047,261.275 490.047,261.275C492.441,261.463 494.329,260.904 495.676,259.547C495.676,259.547 493.597,237.573 492.564,234.291C491.53,231.009 489.42,229.797 489.42,229.797C489.42,229.797 507.703,234.291 510.677,234.291L520.825,234.291C525.186,234.291 529.399,233.029 531.295,227.958C533.063,223.229 530.006,218.739 529.015,217.054C528.024,215.369 526.449,213.214 525.744,211.404L511.244,213.708Z" clip-rule="nonzero"/>
            </clipPath>
            <g clip-path="url(#_clip3)">
                <g transform="matrix(1,0,0,1,520.302,262.838)">
                    <path d="M0,-51.417C0.708,-47.107 2.516,-44.975 2.34,-41.034C2.164,-37.097 -1.025,-35.089 -10.299,-35.919C-19.574,-36.748 -33.829,-38.83 -35.076,-38.48C-36.322,-38.131 -35.908,-36.236 -34.249,-30.616C-32.59,-24.996 -26.92,0 -26.92,0" style="fill:none;fill-rule:nonzero;stroke:rgb(39,77,121);stroke-width:0.21px;stroke-linecap:butt;"/>
                </g>
                <g transform="matrix(1,0,0,1,522.519,214.192)">
                    <path d="M0,8.596C0,8.596 -2.048,9.063 -3.699,7.611C-5.349,6.16 -5.822,-0.467 -5.822,-0.467" style="fill:none;fill-rule:nonzero;stroke:rgb(39,77,121);stroke-width:0.21px;stroke-linecap:butt;"/>
                </g>
                <g transform="matrix(0.956771,-0.290843,-0.290843,-0.956771,489.099,260.26)">
                    <path d="M-0.031,1.087C-0.031,1.087 3.639,-0.987 7.578,1.087" style="fill:none;fill-rule:nonzero;stroke:rgb(39,77,121);stroke-width:0.21px;stroke-linecap:butt;"/>
                </g>
            </g>
        </g>
        <g transform="matrix(1,0,0,1,1092.29,456.986)">
            <path d="M0,-49.436C0,-49.436 -2.906,-51.896 -8.331,-51.382C-12.65,-50.972 -15.807,-48.461 -16.8,-45.302C-17.793,-42.142 -17.495,-36.362 -12.259,-33.13C-12.259,-33.13 -13.884,-32.245 -12.079,-30.53C-12.079,-30.53 -14.877,-29.846 -15.78,-28.292C-16.682,-26.738 -15.78,-25.282 -15.238,-23.528C-14.696,-21.773 -14.516,-21.502 -16.863,-19.155C-19.21,-16.808 -21.228,-12.656 -17.917,-7.33C-14.606,-2.004 -8.85,2.46 -0.851,2.036C7.239,1.607 16.375,-1.09 18.668,-13.553C20.96,-26.016 13.107,-28.853 10.94,-28.292C10.94,-28.292 13.331,-33.612 12.608,-40.473C11.886,-47.334 8.538,-50.414 5.721,-50.636C1.574,-50.963 0,-49.436 0,-49.436" style="fill:rgb(0,28,69);fill-rule:nonzero;"/>
        </g>
        <g transform="matrix(1,0,0,1,1090.6,456.484)">
            <path d="M0,-24.355C-1.07,-24.033 -2.858,-23.764 -3.804,-23.026C-4.75,-22.288 -14.099,-7.728 -14.099,-7.728C-14.099,-7.728 -22.713,-21.208 -23.992,-22.812C-25.335,-24.496 -31.898,-26.599 -33.092,-26.361C-34.568,-26.065 -33.77,-24.224 -33.469,-23.026C-33.297,-22.34 -33.029,-20.443 -31.812,-19.604C-30.595,-18.765 -26.271,-18.112 -26.271,-18.112C-26.271,-18.112 -18.521,-1.801 -16.92,0.643C-15.884,2.225 -14.742,2.244 -12.821,0.13C-10.96,-1.917 -3.533,-11.655 -3.533,-11.655L0,-24.355Z" style="fill:rgb(255,154,141);fill-rule:nonzero;"/>
        </g>
        <g transform="matrix(1,0,0,1,1090.6,439.938)">
            <path d="M0,-7.809C-1.708,-7.191 -3.282,-7.23 -4.145,-6.13C-5.009,-5.03 -5.755,0 -5.755,0C-5.755,0 -1.472,-0.852 -0.333,-3.098C0.807,-5.344 0.839,-7.374 0.839,-7.374L0,-7.809Z" style="fill:rgb(3,170,153);fill-rule:nonzero;"/>
        </g>
        <g transform="matrix(1,0,0,1,1096.56,466.491)">
            <path d="M0,-37.164C0,-37.164 0.739,-36.645 1.448,-36.645C2.402,-36.506 5.516,-35.828 6.145,-34.662C7.657,-32.576 6.107,-25.731 5.226,-20.927C4.689,-17.998 -0.502,-11.423 3.043,-4.715C3.043,-4.715 -4.946,0 -13.009,-3.98C-13.851,-7.972 -12.861,-10.754 -12.833,-15.247C-13.973,-16.485 -15.104,-18.759 -15.207,-20.232C-15.59,-25.713 -10.108,-27.384 -5.84,-33.486C-4.648,-35.189 -3.746,-35.106 -2.124,-36.348C-1.06,-37.164 0,-37.164 0,-37.164" style="fill:rgb(62,217,199);fill-rule:nonzero;"/>
        </g>
        <g transform="matrix(1,0,0,1,1099.03,481.571)">
            <path d="M0,-49.865C2.414,-51.387 4.371,-49.51 5.514,-46.767C6.657,-44.024 12.691,-26.978 13.221,-24.861C13.75,-22.744 11.421,-1.783 10.786,-0.564C10.15,0.655 9.487,1.522 7.066,1.522L-4.057,1.522C-4.057,1.522 -3.507,0.387 -1.602,-0.089C0.304,-0.564 5.704,-0.722 6.762,-2.416C7.821,-4.11 7.371,-23.661 7.371,-23.661C7.371,-23.661 0.671,-37.974 -0.812,-41.53C-2.294,-45.087 -1.712,-48.785 0,-49.865" style="fill:rgb(255,154,141);fill-rule:nonzero;"/>
        </g>
        <g transform="matrix(1,0,0,1,1100.16,439.224)">
            <path d="M0,-8.445C-1.429,-8.445 -4.703,-5.195 -1.939,0.816C-1.939,0.816 1.645,-4.267 4.928,-3.032C4.928,-3.032 3.493,-9.261 0,-8.445" style="fill:rgb(3,170,153);fill-rule:nonzero;"/>
        </g>
        <g transform="matrix(1,0,0,1,1093.66,435.862)">
            <path d="M0,-12.034L2.522,-9.792L3.636,-6.017C3.636,-6.017 2.052,-4.957 1.443,-4.038C0.7,-2.919 -0.964,-0.228 -2.965,0C-2.965,0 -2.764,-2.426 -3.066,-3.733C-3.369,-5.039 -4.282,-7.631 -4.282,-7.631L0,-12.034Z" style="fill:rgb(255,154,141);fill-rule:nonzero;"/>
        </g>
        <g transform="matrix(-0.938059,-0.346475,-0.346475,0.938059,1088.6,431.224)">
            <path d="M-2.186,-8.692C-2.186,-8.692 -3.427,-6.897 -3.713,-5.86C-3.998,-4.824 -3.881,-2.405 -2.186,0.157C-1.449,-0.963 0.305,-3.078 0.305,-3.078L-2.186,-8.692Z" style="fill:rgb(186,89,100);fill-rule:nonzero;"/>
        </g>
        <g transform="matrix(-0.999995,0.00314332,0.00314332,0.999995,1081.88,423.93)">
            <path d="M-1.191,-4.849C-0.712,-3.154 1.238,-0.782 0.816,-0.356C0.466,-0.003 -1.191,-0.077 -1.191,-0.077C-1.191,-0.077 -2.412,-1.246 -2.004,-2.895C-1.598,-4.542 -1.191,-4.849 -1.191,-4.849" style="fill:rgb(186,89,100);fill-rule:nonzero;"/>
        </g>
        <g transform="matrix(1,0,0,1,1087.28,428.597)">
            <path d="M0,-20.125C-2.347,-19.911 -4.701,-16.658 -4.657,-13.698C-4.612,-10.739 -3.928,-9.129 -4.116,-7.039C-4.304,-4.948 -4.292,-2.934 -3.414,-0.742C-2.829,0.716 -1.308,1.044 0.718,0.555C2.574,0.108 5.109,-1.678 5.693,-2.241C6.277,-2.803 6.388,-4.768 6.388,-4.768C6.388,-4.768 9.156,-5.176 10.426,-7.709C11.695,-10.243 11.465,-21.169 0,-20.125" style="fill:rgb(255,154,141);fill-rule:nonzero;"/>
        </g>
        <g transform="matrix(1,0,0,1,1093.66,408.161)">
            <path d="M0,15.667C0,15.667 2.528,14.677 2.302,11.869C2.071,8.986 -1.811,8.883 -1.653,11.42C-1.653,11.42 -4.369,10.884 -6.024,8.942C-9.131,5.295 -9.48,2.323 -9.48,2.323C-8.821,-2.218 -1.376,-0.611 -1.376,-0.611C-1.376,-0.611 2.395,-2.242 5.605,-0.102C7.903,1.43 9.074,6.93 7.213,11.508C5.354,16.079 2.522,17.909 2.522,17.909L0,15.667Z" style="fill:rgb(0,28,69);fill-rule:nonzero;"/>
        </g>
        <g transform="matrix(-0.0566101,0.998396,0.998396,0.0566101,1085.85,419.177)">
            <path d="M0.679,-0.718C0.304,-0.718 -0.001,-0.414 -0.001,-0.038C-0.001,0.337 0.303,0.642 0.679,0.642C1.055,0.642 1.359,0.338 1.359,-0.038C1.359,-0.413 1.055,-0.718 0.679,-0.718" style="fill:rgb(0,28,69);fill-rule:nonzero;"/>
        </g>
        <g transform="matrix(1,0,0,1,1084.53,418.219)">
            <path d="M0,-0.186L3.107,0.8C3.107,0.8 3.04,-0.262 1.969,-0.589C0.667,-0.986 0,-0.186 0,-0.186" style="fill:rgb(0,28,69);fill-rule:nonzero;"/>
        </g>
        <g transform="matrix(1,0,0,1,1094.37,420.29)">
            <path d="M0,-0.863C-0.421,-1.014 -1.054,-0.992 -1.409,-0.705C-1.541,-0.599 -1.315,-0.381 -1.188,-0.428C-0.473,-0.693 0.402,-0.73 0.755,0.106C0.773,0.151 0.805,0.104 0.799,0.074C0.707,-0.387 0.45,-0.701 0,-0.863" style="fill:rgb(186,89,100);fill-rule:nonzero;"/>
        </g>
        <g transform="matrix(1,0,0,1,1094.03,422.405)">
            <path d="M0,-2.912C-0.079,-2.95 -0.26,-2.752 -0.243,-2.697C-0.127,-2.642 0.058,-2.509 0.147,-2.353C0.299,-2.086 0.342,-1.854 0.316,-1.544C0.258,-0.831 -0.142,-0.319 -0.838,-0.157C-0.85,-0.155 -0.871,-0.119 -0.851,-0.113C-0.245,0.038 0.441,-0.588 0.58,-1.13C0.734,-1.731 0.693,-2.583 0,-2.912" style="fill:rgb(186,89,100);fill-rule:nonzero;"/>
        </g>
        <g transform="matrix(1,0,0,1,1090.72,434.325)">
            <path d="M0,-1.32C0.04,-0.509 -1.492,1.28 -1.115,2.515C-0.738,3.75 1.826,3.919 3.21,2.515C4.594,1.111 5.402,-3.284 7.287,-4.48C7.287,-4.48 6.646,-4.48 6.354,-5.239L0,-1.32Z" style="fill:rgb(255,154,141);fill-rule:nonzero;"/>
        </g>
        <g transform="matrix(1,0,0,1,1063.11,443.991)">
            <path d="M0,-15.225C0,-15.225 -0.755,-8.564 1.818,-3.232C2.072,-2.706 1.854,-2.072 1.342,-1.788L-1.794,-0.045C-2.465,0.327 -3.302,-0.06 -3.444,-0.814C-3.935,-3.428 -4.611,-9.154 -2.83,-15.552L0,-15.225Z" style="fill:rgb(0,148,168);fill-rule:nonzero;"/>
        </g>
        <g transform="matrix(1,0,0,1,1059.83,436.621)">
            <path d="M0,-6.131C0.794,-5.907 1.942,-5.414 1.975,-4.66C2.008,-3.905 0.761,-3.872 0.761,-3.872C0.761,-3.872 1.647,-3.479 1.713,-2.921C1.778,-2.363 1.22,-1.805 0.4,-1.805C0.4,-1.805 1.248,-1.517 0.988,-0.759C0.728,0 -0.519,-0.625 -0.765,-0.066C-0.765,-0.066 -1.503,-0.788 -1.569,-2.396C-1.634,-4.003 0,-6.131 0,-6.131" style="fill:rgb(255,154,141);fill-rule:nonzero;"/>
        </g>
        <g transform="matrix(0.599822,-0.800134,-0.800134,-0.599822,1067.33,430.244)">
            <path d="M-3.179,-1.475C-2.47,0.002 -2.071,1.232 -2.561,3.005C-2.98,4.519 -2.492,5.748 -3.179,5.709C-3.866,5.669 -4.695,3.757 -4.172,2.15L-3.179,-1.475Z" style="fill:rgb(255,154,141);fill-rule:nonzero;"/>
        </g>
        <g transform="matrix(0.99216,0.124977,0.124977,-0.99216,1057.8,427.936)">
            <path d="M0.522,-0.543L7.052,-0.543C8.727,-0.534 8.681,8.075 7.006,8.066L0.561,8.333L0.522,-0.543Z" style="fill:rgb(0,148,168);fill-rule:nonzero;"/>
        </g>
        <g transform="matrix(-0.665567,-0.746338,-0.746338,0.665567,1041.36,413.619)">
            <path d="M-16.577,-9.393C-14.804,-7.806 -6.555,-4.27 -0.275,-7.504C4.793,-3.091 -11.508,15.634 -16.577,11.221C-14.623,7.021 -19.9,-0.515 -22.381,-2.679C-23.347,-3.514 -17.543,-10.228 -16.577,-9.393" style="fill:rgb(77,208,225);fill-rule:nonzero;"/>
        </g>
        <g transform="matrix(0.726253,0.687427,0.687427,-0.726253,1089.15,400.776)">
            <path d="M-1.1,-2.762C0.736,-1.698 4.628,-1.381 6.936,-2.762" style="fill:none;fill-rule:nonzero;stroke:rgb(0,28,69);stroke-width:0.31px;"/>
        </g>
        <g transform="matrix(1,0,0,1,886.518,493.628)">
            <path d="M0,-12.197C5.345,-7.325 11.156,-4.019 17.893,-5.302C27.378,-7.107 34.786,-16.777 34.786,-16.777C34.786,-16.777 37.23,-13.589 37.23,-13.27C37.23,-12.952 30.961,-0.52 19.592,2.03C8.224,4.58 -2,-3.567 -2,-3.567L0,-12.197Z" style="fill:rgb(221,122,121);fill-rule:nonzero;"/>
        </g>
        <g transform="matrix(1,0,0,1,983.931,473.391)">
            <path d="M0,75.183C4.493,81.523 12.926,83.66 19.896,80.224L32.553,73.985C34.956,72.801 37.865,73.615 39.303,75.875L62.181,111.822C63.795,114.359 62.961,117.727 60.344,119.208C52.947,123.394 37.664,130.476 20.838,129.105C-2.779,127.181 -18.155,105.221 -44.164,64.354C-70.173,23.487 -83.556,0.26 -75.298,-21.95C-69.415,-37.774 -56.527,-48.62 -49.603,-53.549C-47.153,-55.293 -43.749,-54.622 -42.134,-52.085L-19.257,-16.139C-17.819,-13.879 -18.312,-10.898 -20.403,-9.223L-31.414,-0.399C-37.478,4.461 -39.113,13.005 -35.273,19.76L0,75.183Z" style="fill:rgb(77,208,225);fill-rule:nonzero;"/>
        </g>
        <g transform="matrix(1,0,0,1,954.259,418.143)">
            <path d="M0,53.453L9.269,46.025C11.36,44.349 11.854,41.369 10.415,39.109L-1.679,20.106L-12.604,2.983C-14.266,0.607 -17.545,0 -19.931,1.699C-22.279,3.37 -25.318,5.739 -28.533,8.736L0,53.453Z" style="fill:rgb(0,148,168);fill-rule:nonzero;"/>
        </g>
        <g transform="matrix(1,0,0,1,1034.26,546.318)">
            <path d="M0,51.092C4.074,49.449 7.504,47.7 10.012,46.281C12.551,44.844 13.392,41.636 11.966,39.129L-11.542,2.288C-13.086,0.547 -15.631,0 -17.779,1.058L-28.54,6.363L0,51.092Z" style="fill:rgb(0,148,168);fill-rule:nonzero;"/>
        </g>
        <g transform="matrix(0.800399,0.599468,0.599468,-0.800399,890.915,481.875)">
            <path d="M-3.348,-2.292L2.062,-2.292C2.062,-2.292 7.215,-5.914 6.443,-10.383L-0.229,-11.039L-3.348,-2.292Z" style="fill:rgb(224,151,54);fill-rule:nonzero;"/>
        </g>
        <g transform="matrix(1,0,0,1,812.127,565.202)">
            <path d="M0,39.042C0,39.042 4.277,35.847 7.014,30.123C9.851,24.192 7.326,19.017 3.355,19.77C-0.878,20.573 -1.465,17.114 -2.63,12.734C-4.028,7.481 -10.82,0 -16.366,0.752C-23.519,1.721 -18.997,9.373 -18.266,12.15C-17.535,14.926 -15.73,18.124 -20.167,18.56C-24.207,18.957 -25.977,22.625 -22.829,26.381C-19.836,29.952 -16.577,29.897 -16.431,33.522C-16.285,37.147 -14.028,38.17 -12.129,39.042L0,39.042Z" style="fill:rgb(145,219,172);fill-rule:nonzero;"/>
        </g>
        <g transform="matrix(0.222245,0.974991,0.974991,-0.222245,818.116,579.966)">
            <path d="M-11.788,-17.177C-11.788,-17.177 2.782,-10.504 20.986,-17.177" style="fill:none;fill-rule:nonzero;stroke:rgb(59,85,206);stroke-width:0.41px;"/>
        </g>
        <g transform="matrix(1,0,0,1,899.195,576.785)">
            <path d="M0,27.459C0,27.459 2.761,23.741 1.098,18.394C-1.051,11.482 -7.465,8.288 -5.152,3.763C-3.228,0 2.523,1.904 5.572,6.977C8.501,11.85 8.727,22.12 4.1,27.459L0,27.459Z" style="fill:rgb(64,199,167);fill-rule:nonzero;"/>
        </g>
        <g transform="matrix(0.138996,0.990293,0.990293,-0.138996,913.122,587.5)">
            <path d="M-6.954,-13.725C-6.954,-13.725 3.732,-6.306 14.982,-13.725" style="fill:none;fill-rule:nonzero;stroke:rgb(59,85,206);stroke-width:0.41px;"/>
        </g>
        <g transform="matrix(1,0,0,1,905.737,566.734)">
            <path d="M0,37.51C0,37.51 6.67,33.437 10.323,25.02C13.975,16.603 14.134,6.757 10.323,3.263C6.762,0 2.541,1.993 1.429,7.71C0.318,13.427 2.858,27.925 -4.605,37.51L0,37.51Z" style="fill:rgb(34,164,130);fill-rule:nonzero;"/>
        </g>
        <g transform="matrix(1,0,0,1,912.725,604.244)">
            <path d="M0,-32.658C0,-32.658 1.112,-24.038 -1.429,-14.849C-3.97,-5.66 -8.734,0 -8.734,0" style="fill:none;fill-rule:nonzero;stroke:rgb(59,85,206);stroke-width:0.41px;"/>
        </g>
        <g transform="matrix(1,0,0,1,999.644,566.622)">
            <path d="M0,37.622C0,37.622 0.148,25.855 -9.187,14.89C-18.522,3.925 -29.198,0 -38.423,3.326C-45.29,5.802 -43.526,13.753 -37.911,17.14C-31.265,21.149 -6.371,22.772 -5.482,37.622L0,37.622Z" style="fill:rgb(145,219,172);fill-rule:nonzero;"/>
        </g>
        <g transform="matrix(0.76812,0.640306,0.640306,-0.76812,975.288,567.409)">
            <path d="M-5.016,-14.407C4.263,-5.731 26.66,-2.276 40.245,-14.407" style="fill:none;fill-rule:nonzero;stroke:rgb(59,85,206);stroke-width:0.41px;"/>
        </g>
        <g transform="matrix(0.951482,-0.307703,-0.307703,-0.951482,1007.8,602.668)">
            <path d="M-5.485,0.117C-5.485,0.117 2.374,4.458 5.126,16.824C7.88,29.19 -1.712,35.582 -5.485,30.393C-8.453,26.311 -1.613,12.357 -9.228,1.328L-5.485,0.117Z" style="fill:rgb(61,193,154);fill-rule:nonzero;"/>
        </g>
        <g transform="matrix(0.0816805,0.996659,0.996659,-0.0816805,1015.71,585.679)">
            <path d="M-10.718,-16.285C-7.453,-14.165 5.483,-10.634 17.293,-16.285" style="fill:none;fill-rule:nonzero;stroke:rgb(59,85,206);stroke-width:0.41px;"/>
        </g>
        <g transform="matrix(1.88983,0,0,1,1260.72,602.669)">
            <path d="M0,3.15L-412.441,3.15C-413.31,3.15 -414.016,2.445 -414.016,1.575C-414.016,0.705 -413.31,0 -412.441,0L0,0C0.87,0 1.575,0.705 1.575,1.575C1.575,2.445 0.87,3.15 0,3.15" style="fill:rgb(99,139,226);fill-rule:nonzero;"/>
        </g>
        <g transform="matrix(1,0,0,1,895.968,604.046)">
            <path d="M0,-3.051C0.255,-2.571 0.061,-1.602 -1.864,-0.801C-3.79,0 -7.272,-0.34 -8.655,-0.611C-10.039,-0.883 -10.881,-1.285 -12.93,-0.857C-14.978,-0.428 -18.335,-0.615 -19.351,-1.474C-19.704,-1.882 -19.466,-2.725 -19.466,-2.725L0,-3.051Z" style="fill:rgb(143,201,198);fill-rule:nonzero;"/>
        </g>
        <g transform="matrix(1,0,0,1,877.6,602.593)">
            <path d="M0,-7.593C-0.281,-6.188 -1.426,-2.879 -1.098,-1.273C0.342,-0.055 3.423,0.029 5.734,-0.554C8.044,-1.137 9.67,0.048 12.57,0.217C15.415,0.384 17.788,-0.407 18.368,-1.599C19.002,-2.899 14.032,-3.904 10.645,-4.945C6.855,-6.109 4.897,-7.977 4.897,-7.977L0,-7.593Z" style="fill:rgb(34,140,126);fill-rule:nonzero;"/>
        </g>
        <g transform="matrix(1,0,0,1,572.714,248.802)">
            <clipPath id="_clip4">
                <path d="M304.886,346.198C304.605,347.604 303.459,350.913 303.788,352.519C305.227,353.737 308.309,353.82 310.619,353.237C312.93,352.654 314.555,353.839 317.455,354.009C320.3,354.176 322.673,353.384 323.254,352.193C323.887,350.893 318.918,349.887 315.53,348.847C311.74,347.682 309.783,345.814 309.783,345.814L304.886,346.198Z" clip-rule="nonzero"/>
            </clipPath>
            <g clip-path="url(#_clip4)">
                <g transform="matrix(0.532733,-0.846283,-0.846283,-0.532733,312.373,348.998)">
                    <path d="M-0.698,1.265C-0.698,1.265 1.282,1.706 2.29,1.265" style="fill:none;fill-rule:nonzero;stroke:rgb(143,201,198);stroke-width:0.2px;"/>
                </g>
                <g transform="matrix(0.532733,-0.846283,-0.846283,-0.532733,314.951,350.021)">
                    <path d="M-0.698,1.265C-0.698,1.265 1.282,1.706 2.29,1.265" style="fill:none;fill-rule:nonzero;stroke:rgb(143,201,198);stroke-width:0.2px;"/>
                </g>
                <g transform="matrix(0.532733,-0.846283,-0.846283,-0.532733,317.529,351.043)">
                    <path d="M-0.698,1.265C-0.698,1.265 1.282,1.706 2.29,1.265" style="fill:none;fill-rule:nonzero;stroke:rgb(143,201,198);stroke-width:0.2px;"/>
                </g>
            </g>
        </g>
        <g transform="matrix(1,0,0,1,877.6,597.004)">
            <path d="M0,-7.609L0,-2.003C0,-2.003 0.649,-1.788 0.92,-1.469C1.191,-1.15 1.562,-0.093 2.018,-0.074C3.828,0 4.897,-2.387 4.897,-2.387L5.578,-7.483L0,-7.609Z" style="fill:rgb(255,154,141);fill-rule:nonzero;"/>
        </g>
        <g transform="matrix(1,0,0,1,832.418,584.198)">
            <path d="M0,18.252C-0.396,18.625 -1.381,18.694 -2.663,17.049C-3.944,15.404 -4.538,11.956 -4.641,10.55C-4.745,9.144 -4.58,8.225 -5.535,6.363C-6.49,4.501 -7.197,1.214 -6.637,0.006C-6.338,-0.442 -5.462,-0.435 -5.462,-0.435L0,18.252Z" style="fill:rgb(170,238,237);fill-rule:nonzero;"/>
        </g>
        <g transform="matrix(1,0,0,1,833.342,602.588)">
            <path d="M0,-19.438C-1.429,-19.337 -4.924,-19.567 -6.386,-18.826C-7.18,-17.115 -6.445,-14.122 -5.272,-12.047C-4.099,-9.973 -4.812,-8.092 -4.209,-5.251C-3.617,-2.463 -2.226,-0.383 -0.924,-0.138C0.497,0.129 0.152,-4.93 0.261,-8.472C0.382,-12.435 1.665,-14.817 1.665,-14.817L0,-19.438Z" style="fill:rgb(3,170,153);fill-rule:nonzero;"/>
        </g>
        <g transform="matrix(1,0,0,1,572.714,248.802)">
            <clipPath id="_clip5">
                <path d="M254.243,334.961C253.448,336.671 254.182,339.664 255.356,341.739C256.53,343.813 255.817,345.694 256.419,348.535C257.011,351.324 258.402,353.403 259.704,353.647C261.125,353.915 260.78,348.856 260.888,345.314C261.01,341.352 262.293,338.969 262.293,338.969L260.628,334.348C259.199,334.45 255.704,334.219 254.243,334.961Z" clip-rule="nonzero"/>
            </clipPath>
            <g clip-path="url(#_clip5)">
                <g transform="matrix(0.956993,0.29011,0.29011,-0.956993,259.794,340.5)">
                    <path d="M-0.064,-0.434C-0.064,-0.434 1.916,0.009 2.924,-0.434" style="fill:none;fill-rule:nonzero;stroke:rgb(170,238,237);stroke-width:0.2px;"/>
                </g>
                <g transform="matrix(0.956993,0.29011,0.29011,-0.956993,259.489,343.257)">
                    <path d="M-0.064,-0.434C-0.064,-0.434 1.916,0.009 2.924,-0.434" style="fill:none;fill-rule:nonzero;stroke:rgb(170,238,237);stroke-width:0.2px;"/>
                </g>
                <g transform="matrix(0.956993,0.29011,0.29011,-0.956993,259.184,346.013)">
                    <path d="M-0.064,-0.434C-0.064,-0.434 1.916,0.009 2.924,-0.434" style="fill:none;fill-rule:nonzero;stroke:rgb(170,238,237);stroke-width:0.2px;"/>
                </g>
            </g>
        </g>
        <g transform="matrix(1,0,0,1,836.961,587.771)">
            <path d="M0,-7.223L-3.619,-4.621C-3.619,-4.621 -3.655,-3.938 -3.891,-3.593C-4.126,-3.247 -5.048,-2.61 -4.945,-2.165C-4.539,-0.399 -1.953,0 -1.953,0L3.078,-2.684L0,-7.223Z" style="fill:rgb(255,154,141);fill-rule:nonzero;"/>
        </g>
        <g transform="matrix(1,0,0,1,888.427,591.341)">
            <path d="M0,-81.801C-6.278,-81.801 -10.951,-81.328 -10.951,-81.328C-12.958,-80.449 -16.404,-75.886 -17.418,-72.989C-18.434,-70.087 -16.927,-66.044 -16.398,-63.552C-13.451,-49.668 -10.434,-40.022 -9.29,-34.518C-8.589,-31.151 -11.085,-30.614 -11.108,-25.28C-11.142,-17.645 -10.827,-1.368 -10.827,-1.368C-10.827,-1.368 -8.475,0 -5.367,-0.936C-5.367,-0.936 -0.656,-27.781 -0.14,-30.853C0.698,-35.834 0.987,-37.925 1.081,-46.544C1.213,-58.668 0,-81.801 0,-81.801" style="fill:rgb(30,65,116);fill-rule:nonzero;"/>
        </g>
        <g transform="matrix(1,0,0,1,888.349,573.238)">
            <path d="M0,-53.181C-1.05,-48.267 -8.094,-42.356 -8.094,-42.356C-8.892,-40.067 -19.213,-4.724 -20.935,-3.38C-22.658,-2.047 -48.309,11.845 -48.309,11.845C-49.548,11.183 -50.293,10.175 -50.745,9.283C-51.091,8.579 -51.259,7.949 -51.333,7.603C-51.354,7.487 -51.375,7.403 -51.375,7.361C-51.385,7.33 -51.385,7.309 -51.385,7.309C-51.385,7.309 -38.25,-6.583 -35.152,-8.063C-31.771,-9.68 -29.871,-10.121 -29.871,-10.121L-29.871,-10.132C-26.34,-26.551 -26.448,-39.385 -23.592,-48.457C-23.067,-50.137 -22.51,-51.638 -21.933,-52.919C-21.198,-54.526 -20.641,-55.87 -20.19,-57.014C-20.001,-57.508 -19.833,-57.959 -19.675,-58.39C-19.518,-58.82 -19.382,-59.219 -19.266,-59.587C-19.182,-59.839 -19.108,-60.08 -19.035,-60.301C-18.709,-61.33 -18.478,-62.159 -18.227,-62.947C-18.111,-63.293 -17.995,-63.629 -17.869,-63.976C-17.796,-64.144 -17.733,-64.322 -17.659,-64.49C-17.586,-64.669 -17.512,-64.847 -17.428,-65.026L-17.418,-65.026L-17.418,-65.015L-12.514,-61.361L-10.152,-59.608L0,-53.181Z" style="fill:rgb(133,184,237);fill-rule:nonzero;"/>
        </g>
        <g transform="matrix(1,0,0,1,878.197,577.102)">
            <path d="M0,-63.472C-0.693,-62.58 -1.712,-61.383 -2.993,-60.259C-6.636,-57.088 -8.837,-52.156 -10.779,-41.932C-12.968,-30.415 -16.643,-13.292 -17.083,-12.232C-17.514,-11.172 -20.759,-11.571 -26.681,-7.245C-31.154,-3.979 -37.653,2.814 -40.593,5.418C-40.94,4.715 -41.108,4.085 -41.181,3.738C-41.202,3.623 -41.212,3.539 -41.223,3.497C-41.234,3.466 -41.234,3.444 -41.234,3.444C-41.234,3.444 -28.098,-10.447 -25.001,-11.928C-21.62,-13.545 -19.719,-13.986 -19.719,-13.986L-19.719,-13.996C-16.35,-30.415 -16.296,-43.249 -13.44,-52.321C-12.915,-54.001 -12.359,-55.492 -11.771,-56.773C-11.036,-58.38 -10.479,-59.724 -10.038,-60.879C-9.839,-61.372 -9.671,-61.834 -9.523,-62.254C-9.366,-62.685 -9.23,-63.084 -9.114,-63.451C-9.03,-63.703 -8.957,-63.945 -8.883,-64.165C-8.557,-65.194 -8.327,-66.024 -8.075,-66.811C-7.959,-67.158 -7.844,-67.494 -7.717,-67.84C-7.644,-68.008 -7.581,-68.187 -7.508,-68.355C-7.434,-68.533 -7.35,-68.701 -7.266,-68.88L-7.266,-68.89L-2.363,-65.226L0,-63.472Z" style="fill:rgb(78,126,172);fill-rule:nonzero;"/>
        </g>
        <g transform="matrix(-0.104718,-0.994502,-0.994502,0.104718,874.525,510.96)">
            <path d="M-10.495,-12.795C-10.495,-12.795 -14.342,-9.162 -13.746,-0.35C-13.334,5.74 -10.495,9.34 -10.495,9.34L-7.03,6.581L-10.495,-12.795Z" style="fill:rgb(78,126,172);fill-rule:nonzero;"/>
        </g>
        <g transform="matrix(1,0,0,1,572.714,248.802)">
            <clipPath id="_clip6">
                <path d="M293.706,271.521C290.289,278.417 289.053,297.846 285.767,314.31C285.767,314.31 283.867,314.758 280.487,316.37C277.384,317.849 264.247,331.746 264.247,331.746C264.247,331.746 264.615,334.819 267.325,336.286C267.325,336.286 292.982,322.388 294.703,321.051C296.426,319.715 306.742,284.367 307.537,282.085C307.537,282.085 315.139,275.893 316.188,270.985L298.616,259.485C297.273,262.372 297.284,264.298 293.706,271.521Z" clip-rule="nonzero"/>
            </clipPath>
            <g clip-path="url(#_clip6)">
                <g transform="matrix(1,0,0,1,311.934,335.704)">
                    <path d="M0,-74.114C-3.696,-69.37 -8.413,-66.495 -10.372,-63.243C-12.331,-59.991 -13.424,-52.955 -15.965,-40.106C-18.489,-27.34 -20.789,-18.648 -21.487,-17.88C-22.186,-17.112 -26.517,-16.35 -33.282,-11.812C-40.047,-7.275 -47.89,0 -47.89,0" style="fill:none;fill-rule:nonzero;stroke:rgb(39,77,121);stroke-width:0.2px;stroke-linecap:butt;"/>
                </g>
                <g transform="matrix(-0.789573,0.613656,0.613656,0.789573,302.574,282.711)">
                    <path d="M-10.227,-4.576C-10.227,-4.576 -4.109,0.906 0.738,-4.576" style="fill:none;fill-rule:nonzero;stroke:rgb(39,77,121);stroke-width:0.2px;stroke-linecap:butt;"/>
                </g>
                <g transform="matrix(0.527187,0.849749,0.849749,-0.527187,269.635,329.035)">
                    <path d="M-1.944,-3.495C-0.084,-4.611 3.389,-4.974 6.28,-3.495" style="fill:none;fill-rule:nonzero;stroke:rgb(39,77,121);stroke-width:0.2px;stroke-linecap:butt;"/>
                </g>
            </g>
        </g>
        <g transform="matrix(0.759406,0.650616,0.650616,-0.759406,879.915,470.095)">
            <path d="M1.811,-2.867L9.817,-2.867L7.083,5.68L-1.134,4.143L1.811,-2.867Z" style="fill:rgb(255,154,141);fill-rule:nonzero;"/>
        </g>
        <g transform="matrix(1,0,0,1,887.958,466.21)">
            <path d="M0,6.627C0,6.627 -7.168,4.618 -6.209,0L1.031,4.179L0,6.627Z" style="fill:rgb(186,89,100);fill-rule:nonzero;"/>
        </g>
        <g transform="matrix(1,0,0,1,885.361,517.355)">
            <path d="M0,-38.902C1.397,-37.724 2.296,-36.065 2.5,-34.249C2.829,-31.311 3.09,-26.913 3.339,-20.527C3.564,-14.73 4.147,2.092 4.147,2.092C4.147,2.092 -0.291,5.002 -7.748,4.405C-14.87,3.835 -17.943,0.333 -17.943,0.333C-17.943,0.333 -17.201,-23.323 -14.859,-32.634C-11.401,-42.235 -5.935,-43.904 -5.935,-43.904L0,-38.902Z" style="fill:rgb(255,194,83);fill-rule:nonzero;"/>
        </g>
        <g transform="matrix(1,0,0,1,892.619,464.648)">
            <path d="M0,-5.207C0.374,-4.559 2.336,-1.809 2.972,-1.01C3.608,-0.212 1.069,0 1.069,0L0,-5.207Z" style="fill:rgb(186,89,100);fill-rule:nonzero;"/>
        </g>
        <g transform="matrix(1,0,0,1,881.749,456.407)">
            <path d="M0,9.804C0,9.804 0.41,10.75 0.837,11.457C1.263,12.163 7.227,14.583 8.801,14.775C10.374,14.966 12.464,14.646 12.048,9.394C11.631,4.142 10.297,-0.406 6.787,-2.784C3.277,-5.162 -1.643,-2.566 -3.768,0.801C-5.893,4.168 -3.627,10.773 0,9.804" style="fill:rgb(255,154,141);fill-rule:nonzero;"/>
        </g>
        <g transform="matrix(1,0,0,1,881.749,446.678)">
            <path d="M0,19.533L-0.776,21.952C-0.776,21.952 -1.378,22.239 -2.899,20.35C-4.563,18.282 -7.599,14.753 -7.301,12.51C-6.91,9.569 -3.539,8.508 -3.539,8.508C-3.539,8.508 -1.82,3.071 4.902,0.182C11.625,-2.706 14.596,2.155 9.428,5.742C9.428,5.742 13.023,7.537 10.753,8.899C8.484,10.261 1.995,10.091 1.995,10.091C1.995,10.091 5.18,11.309 4.232,12.21C3.285,13.11 -0.826,12.739 -0.826,12.739L-0.312,14.81C-0.312,14.81 -1.988,14.297 -2.892,15.382C-3.976,16.681 -2.312,20.215 0,19.533" style="fill:rgb(0,28,69);fill-rule:nonzero;"/>
        </g>
        <g transform="matrix(1,0,0,1,877.548,456.111)">
            <path d="M0,-7.253C0,-7.253 -2.003,-2.917 1.76,0C1.76,0 -1.993,-0.12 -2.79,-3.679" style="fill:none;fill-rule:nonzero;stroke:rgb(0,28,69);stroke-width:0.31px;"/>
        </g>
        <g transform="matrix(-0.323851,-0.946108,-0.946108,0.323851,888.968,460.181)">
            <path d="M-0.613,-0.858C-0.255,-0.858 0.035,-0.568 0.034,-0.21C0.034,0.148 -0.255,0.438 -0.613,0.438C-0.972,0.438 -1.262,0.148 -1.262,-0.211C-1.262,-0.569 -0.972,-0.858 -0.613,-0.858" style="fill:rgb(0,28,69);fill-rule:nonzero;"/>
        </g>
        <g transform="matrix(1,0,0,1,890.034,459.846)">
            <path d="M0,-1.143L-2.597,0.563C-2.597,0.563 -2.809,-0.429 -1.911,-1.005C-0.818,-1.706 0,-1.143 0,-1.143" style="fill:rgb(0,28,69);fill-rule:nonzero;"/>
        </g>
        <g transform="matrix(1,0,0,1,879.676,463.445)">
            <path d="M0,-0.74C0.348,-0.987 0.934,-1.13 1.334,-0.958C1.482,-0.895 1.331,-0.637 1.203,-0.647C0.478,-0.706 -0.335,-0.515 -0.443,0.344C-0.448,0.39 -0.489,0.355 -0.492,0.326C-0.527,-0.121 -0.372,-0.476 0,-0.74" style="fill:rgb(186,89,100);fill-rule:nonzero;"/>
        </g>
        <g transform="matrix(1,0,0,1,879.999,465.269)">
            <path d="M0,-2.589C0.063,-2.644 0.28,-2.509 0.279,-2.454C0.186,-2.374 0.05,-2.204 0.009,-2.038C-0.061,-1.754 -0.041,-1.53 0.062,-1.252C0.299,-0.613 0.799,-0.246 1.479,-0.277C1.491,-0.278 1.52,-0.25 1.502,-0.24C0.985,0.055 0.195,-0.343 -0.073,-0.804C-0.369,-1.316 -0.551,-2.109 0,-2.589" style="fill:rgb(186,89,100);fill-rule:nonzero;"/>
        </g>
        <g transform="matrix(1,0,0,1,876.788,495.679)">
            <path d="M0,-16.966C-1.471,-16.188 -3.403,-11.942 -2.031,-7.354C-0.658,-2.767 1.121,1.966 1.121,1.966C1.121,1.966 8.207,0.292 10.073,-4.223C10.073,-4.223 7.57,-10.34 6.405,-12.815C5.24,-15.291 3.717,-18.932 0,-16.966" style="fill:rgb(224,151,54);fill-rule:nonzero;"/>
        </g>
        <g transform="matrix(1,0,0,1,884.205,497.582)">
            <path d="M0,7.765C1.589,9.355 3.755,11.101 4.963,11.582C4.868,8.908 4.767,6.648 4.677,4.171L-0.628,-2.875L-4.114,-3.817L-5.366,-0.203C-5.366,-0.203 -2.539,5.225 0,7.765" style="fill:rgb(224,151,54);fill-rule:nonzero;"/>
        </g>
        <g transform="matrix(1,0,0,1,878.463,509.028)">
            <path d="M0,-30.369C-3.351,-29.479 -4.493,-24.672 -1.121,-17.226C2.112,-10.087 7.324,-3.552 10.526,-1.321C13.729,0.91 26.137,0.176 36.514,-2.892C36.514,-2.892 42.428,-5.016 44.072,-6.473C47.736,-9.719 47.915,-14.031 45.225,-13.39C42.535,-12.75 38.287,-9.834 38.287,-9.834C38.287,-9.834 37.161,-12.054 36.342,-13.781C36.342,-13.781 35.615,-13.591 35.359,-12.054C35.103,-10.517 35.126,-8.375 34.678,-8.062C33.487,-7.231 16.854,-5.832 14.867,-7.789C12.617,-10.006 9.357,-15.889 7.043,-21.321C4.484,-27.326 3.427,-31.279 0,-30.369" style="fill:rgb(255,154,141);fill-rule:nonzero;"/>
        </g>
        <g transform="matrix(1,0,0,1,877.342,494.876)">
            <path d="M0,-16.966C-1.471,-16.188 -3.403,-11.942 -2.031,-7.354C-0.658,-2.767 1.121,1.966 1.121,1.966C1.121,1.966 7.774,0.959 10.598,-2.861C10.598,-2.861 7.57,-10.34 6.405,-12.815C5.24,-15.291 3.716,-18.932 0,-16.966" style="fill:rgb(255,194,83);fill-rule:nonzero;"/>
        </g>
    </g>
    <g id="Text" transform="matrix(1.05339,0,0,1.05339,1599.29,-63.1327)">
        <g transform="matrix(1,0,0,1,58.0172,187.394)">
            <path d="M0,31.807L20.874,31.807L19.028,41.179L-18.602,41.179L-17.111,33.724L5.538,15.975C11.147,11.501 12.851,8.874 12.851,5.608C12.851,2.343 10.366,0.142 5.538,0.142C1.562,0.142 -2.272,1.988 -5.041,5.325L-12.78,-0.284C-8.804,-5.752 -1.349,-9.372 7.242,-9.372C17.749,-9.372 24.637,-3.763 24.637,3.975C24.637,9.868 21.939,14.838 13.206,21.583L0,31.807Z" style="fill:rgb(26,46,53);fill-rule:nonzero;"/>
        </g>
        <g transform="matrix(1,0,0,1,128.662,189.311)">
            <path d="M0,28.825L-8.165,28.825L-10.224,39.262L-21.441,39.262L-19.312,28.825L-46.078,28.825L-44.587,21.086L-15.335,-10.437L-2.769,-10.437L-30.032,19.453L-16.969,19.453L-15.122,10.152L-4.402,10.152L-6.247,19.453L1.917,19.453L0,28.825Z" style="fill:rgb(26,46,53);fill-rule:nonzero;"/>
        </g>
        <g transform="matrix(1,0,0,1,161.464,235.672)">
            <path d="M0,-66.881L10.366,-66.881L-26.128,0L-36.423,0L0,-66.881Z" style="fill:rgb(26,46,53);fill-rule:nonzero;"/>
        </g>
        <g transform="matrix(1,0,0,1,208.82,228.572)">
            <path d="M0,-49.699L-1.491,-42.245L-28.044,0L-40.824,0L-15.335,-40.328L-31.453,-40.328L-33.085,-32.233L-43.309,-32.233L-39.83,-49.699L0,-49.699Z" style="fill:rgb(26,46,53);fill-rule:nonzero;"/>
        </g>
        <g transform="matrix(1,0,0,1,34.7711,246.229)">
            <path d="M0,21.547L2.908,16.029C5.554,17.707 8.611,18.602 11.593,18.602C14.426,18.602 16.066,17.707 16.066,16.29C16.066,12.786 3.392,14.725 3.392,6.524C3.392,0.895 8.201,-2.795 15.917,-2.795C19.608,-2.795 22.963,-2.013 25.311,-0.559L22.628,4.921C20.577,3.616 18.042,2.945 15.47,2.945C12.413,2.945 10.773,4.064 10.773,5.48C10.736,9.059 23.447,7.008 23.447,15.061C23.447,20.652 18.527,24.342 10.885,24.342C6.412,24.342 2.348,23.15 0,21.547" style="fill:rgb(26,46,53);fill-rule:nonzero;"/>
        </g>
        <g transform="matrix(1,0,0,1,71.3727,264.346)">
            <path d="M0,-14.687L-0.857,-10.288L10.736,-10.288L9.655,-4.771L-1.976,-4.771L-2.908,0.001L10.773,0.001L9.58,5.704L-11.333,5.704L-6.113,-20.391L14.314,-20.391L13.159,-14.687L0,-14.687Z" style="fill:rgb(26,46,53);fill-rule:nonzero;"/>
        </g>
        <g transform="matrix(1,0,0,1,100.407,264.233)">
            <path d="M0,-14.462L-3.877,-14.462L-5.442,-6.82L-1.044,-6.82C2.199,-6.82 4.101,-8.386 4.101,-11.257C4.101,-13.456 2.535,-14.462 0,-14.462M4.324,-2.012L8.76,5.816L1.043,5.816L-2.833,-1.117L-6.561,-1.117L-7.94,5.816L-15.321,5.816L-10.102,-20.278L1.043,-20.278C7.716,-20.278 11.556,-17.184 11.556,-11.965C11.556,-7.156 8.872,-3.577 4.324,-2.012" style="fill:rgb(26,46,53);fill-rule:nonzero;"/>
        </g>
        <g transform="matrix(1,0,0,1,144.314,270.049)">
            <path d="M0,-26.094L-16.365,0L-23.634,0L-29.561,-26.094L-21.993,-26.094L-18.266,-9.133L-7.605,-26.094L0,-26.094Z" style="fill:rgb(26,46,53);fill-rule:nonzero;"/>
        </g>
        <g transform="matrix(1,0,0,1,145.875,270.049)">
            <path d="M0,-26.094L7.381,-26.094L2.162,0L-5.219,0L0,-26.094Z" style="fill:rgb(26,46,53);fill-rule:nonzero;"/>
        </g>
        <g transform="matrix(1,0,0,1,154.408,254.914)">
            <path d="M0,4.175C0,-4.883 6.672,-11.481 16.365,-11.481C21.173,-11.481 25.087,-9.729 26.951,-6.56L21.621,-2.31C20.391,-4.287 18.489,-5.368 15.88,-5.368C10.811,-5.368 7.456,-1.453 7.456,3.691C7.456,7.195 9.841,9.543 13.83,9.543C16.178,9.543 18.34,8.649 20.204,6.524L24.566,10.811C21.621,14.352 17.781,15.656 13.122,15.656C5.107,15.656 0,10.997 0,4.175" style="fill:rgb(26,46,53);fill-rule:nonzero;"/>
        </g>
        <g transform="matrix(1,0,0,1,192.128,264.346)">
            <path d="M0,-14.687L-0.857,-10.288L10.736,-10.288L9.655,-4.771L-1.976,-4.771L-2.908,0.001L10.773,0.001L9.58,5.704L-11.333,5.704L-6.113,-20.391L14.314,-20.391L13.159,-14.687L0,-14.687Z" style="fill:rgb(26,46,53);fill-rule:nonzero;"/>
        </g>
        <g transform="matrix(1,0,0,1,63.1521,81.3485)">
            <path d="M0,82.812L-14.569,82.812C-14.569,62.529 -6.362,41.79 7.948,25.915C23.011,9.203 42.554,0 62.977,0C104.65,0 133.755,30.42 133.755,73.976L119.186,73.976C119.186,38.443 96.597,14.57 62.977,14.57C30.016,14.57 0,47.096 0,82.812" style="fill:rgb(77,208,225);fill-rule:nonzero;"/>
        </g>
        <g transform="matrix(-0.999973,-0.00738896,-0.00738896,0.999973,71.1342,160.885)">
            <path d="M-0.002,-0.777C-2.33,-0.756 -4.218,-0.574 -4.217,-0.37C-4.218,-0.167 -2.33,0.015 -0.002,0.035C2.325,0.055 4.212,-0.127 4.212,-0.372C4.213,-0.617 2.325,-0.798 -0.002,-0.777" style="fill:rgb(26,46,53);fill-rule:nonzero;"/>
        </g>
        <g transform="matrix(-0.844782,-0.535111,-0.535111,0.844782,80.0181,129.137)">
            <path d="M-0.48,-1.446C-2.809,-1.412 -4.696,-1.051 -4.697,-0.639C-4.696,-0.227 -2.809,0.134 -0.48,0.168C1.846,0.204 3.734,-0.158 3.734,-0.639C3.735,-1.119 1.846,-1.481 -0.48,-1.446" style="fill:rgb(26,46,53);fill-rule:nonzero;"/>
        </g>
        <g transform="matrix(-0.421766,-0.906705,-0.906705,0.421766,105.017,105.921)">
            <path d="M-0.803,-1.158C-3.131,-1.115 -5.018,-0.753 -5.018,-0.35C-5.018,0.054 -3.131,0.415 -0.803,0.457C1.524,0.499 3.412,0.137 3.412,-0.351C3.412,-0.84 1.524,-1.201 -0.803,-1.158" style="fill:rgb(26,46,53);fill-rule:nonzero;"/>
        </g>
        <g transform="matrix(0.230867,-0.972985,-0.972985,-0.230867,139.217,102.669)">
            <path d="M-0.763,-0.573C-3.091,-0.529 -4.978,-0.167 -4.978,0.235C-4.978,0.638 -3.09,0.999 -0.763,1.043C1.564,1.086 3.452,0.724 3.452,0.234C3.452,-0.255 1.564,-0.617 -0.763,-0.573" style="fill:rgb(26,46,53);fill-rule:nonzero;"/>
        </g>
        <g transform="matrix(0.821879,-0.569662,-0.569662,-0.821879,167.043,122.224)">
            <path d="M-0.475,-0.122C-2.803,-0.076 -4.691,0.284 -4.691,0.682C-4.692,1.08 -2.804,1.441 -0.475,1.488C1.851,1.535 3.739,1.174 3.739,0.683C3.739,0.193 1.851,-0.168 -0.475,-0.122" style="fill:rgb(26,46,53);fill-rule:nonzero;"/>
        </g>
        <g transform="matrix(0.999981,-0.00617272,-0.00617272,-0.999981,175.657,154.015)">
            <path d="M-0.003,0C-2.332,0.017 -4.218,0.198 -4.218,0.406C-4.218,0.613 -2.331,0.793 -0.003,0.81C2.325,0.826 4.212,0.644 4.212,0.404C4.212,0.164 2.324,-0.017 -0.003,0" style="fill:rgb(26,46,53);fill-rule:nonzero;"/>
        </g>
        <g transform="matrix(1,0,0,1,122.153,121.305)">
            <path d="M0,37.03C-0.698,37.03 -1.399,36.805 -1.985,36.349L-26.469,17.333C-27.881,16.236 -28.137,14.202 -27.04,12.79C-25.943,11.379 -23.911,11.122 -22.496,12.219L-0.187,29.547L30.668,1.218C31.977,0 34.025,0.076 35.244,1.385C36.461,2.695 36.387,4.743 35.077,5.961L2.205,36.164C1.587,36.738 0.794,37.03 0,37.03" style="fill:rgb(77,208,225);fill-rule:nonzero;"/>
        </g>
        <g transform="matrix(1,0,0,1,138.757,59.9328)">
            <path d="M0,11.749L-28.075,11.749C-28.512,11.749 -28.867,11.394 -28.867,10.957L-28.867,0.792C-28.867,0.355 -28.512,0 -28.075,0L0,0C0.438,0 0.792,0.355 0.792,0.792L0.792,10.957C0.792,11.394 0.438,11.749 0,11.749" style="fill:rgb(77,208,225);fill-rule:nonzero;"/>
        </g>
        <g transform="matrix(-1,0,0,1,249.439,-354.486)">
            <rect x="117.054" y="420.294" width="15.331" height="13.898" style="fill:rgb(77,208,225);"/>
        </g>
        <g transform="matrix(1,0,0,1,71.3222,110.154)">
            <path d="M0,-6.283L-11.516,7.979C-11.964,8.534 -12.778,8.62 -13.333,8.172L-21.203,1.817C-21.758,1.369 -21.845,0.555 -21.397,0L-9.881,-14.262C-9.433,-14.817 -8.619,-14.903 -8.064,-14.455L-0.193,-8.1C0.362,-7.651 0.448,-6.838 0,-6.283" style="fill:rgb(77,208,225);fill-rule:nonzero;"/>
        </g>
        <g transform="matrix(0,-1,-1,0,124.719,57.6413)">
            <path d="M-14.04,-14.041C-14.204,-14.041 -14.338,-7.754 -14.338,-0.002C-14.338,7.755 -14.204,14.04 -14.04,14.04C-13.876,14.04 -13.743,7.755 -13.743,-0.002C-13.743,-7.754 -13.876,-14.041 -14.04,-14.041" style="fill:rgb(26,46,53);fill-rule:nonzero;"/>
        </g>
        <g transform="matrix(0.601836,-0.798619,-0.798619,-0.601836,62.1601,110.451)">
            <path d="M-4.763,-2.363C-5.001,-2.345 -4.984,0.322 -4.988,3.6C-4.985,6.879 -5.001,9.545 -4.763,9.564C-4.536,9.582 -4.142,6.916 -4.145,3.6C-4.142,0.286 -4.536,-2.381 -4.763,-2.363" style="fill:rgb(26,46,53);fill-rule:nonzero;"/>
        </g>
        <g transform="matrix(0.601836,-0.798619,-0.798619,-0.601836,64.596,106.862)">
            <path d="M-4.763,-2.363C-5.001,-2.345 -4.984,0.322 -4.988,3.6C-4.985,6.879 -5,9.546 -4.763,9.564C-4.536,9.582 -4.142,6.916 -4.145,3.6C-4.142,0.286 -4.536,-2.381 -4.763,-2.363" style="fill:rgb(26,46,53);fill-rule:nonzero;"/>
        </g>
        <g transform="matrix(0.601836,-0.798619,-0.798619,-0.601836,67.5943,103.854)">
            <path d="M-4.763,-2.363C-5.001,-2.345 -4.984,0.322 -4.988,3.6C-4.985,6.879 -5.001,9.545 -4.763,9.564C-4.536,9.582 -4.142,6.916 -4.145,3.6C-4.142,0.286 -4.536,-2.381 -4.763,-2.363" style="fill:rgb(26,46,53);fill-rule:nonzero;"/>
        </g>
        <g transform="matrix(0.601836,-0.798619,-0.798619,-0.601836,70.4922,100.266)">
            <path d="M-4.763,-2.363C-5.001,-2.345 -4.984,0.322 -4.988,3.6C-4.985,6.879 -5,9.546 -4.763,9.564C-4.536,9.582 -4.142,6.916 -4.145,3.6C-4.142,0.286 -4.536,-2.381 -4.763,-2.363" style="fill:rgb(26,46,53);fill-rule:nonzero;"/>
        </g>
        <g transform="matrix(1,0,0,1,185.839,86.9064)">
            <path d="M0,22.092L-12.395,8.587C-12.877,8.062 -12.842,7.244 -12.317,6.762L-4.864,-0.079C-4.338,-0.561 -3.521,-0.526 -3.038,0L9.356,13.505C9.839,14.03 9.804,14.847 9.278,15.33L1.825,22.17C1.3,22.653 0.482,22.618 0,22.092" style="fill:rgb(77,208,225);fill-rule:nonzero;"/>
        </g>
        <g transform="matrix(0.700452,0.7137,0.7137,-0.700452,173.972,92.9245)">
            <path d="M4.252,-1.795C4.015,-1.778 4.031,0.89 4.027,4.167C4.031,7.447 4.015,10.113 4.252,10.131C4.479,10.15 4.873,7.483 4.87,4.168C4.873,0.853 4.479,-1.814 4.252,-1.795" style="fill:rgb(26,46,53);fill-rule:nonzero;"/>
        </g>
        <g transform="matrix(0.700452,0.7137,0.7137,-0.700452,177.16,95.8661)">
            <path d="M4.252,-1.795C4.015,-1.778 4.031,0.89 4.027,4.167C4.031,7.447 4.015,10.113 4.252,10.131C4.479,10.15 4.873,7.483 4.87,4.168C4.873,0.853 4.479,-1.814 4.252,-1.795" style="fill:rgb(26,46,53);fill-rule:nonzero;"/>
        </g>
        <g transform="matrix(0.700452,0.7137,0.7137,-0.700452,179.689,99.2775)">
            <path d="M4.252,-1.795C4.015,-1.778 4.031,0.89 4.027,4.167C4.031,7.447 4.015,10.113 4.252,10.131C4.479,10.15 4.873,7.483 4.87,4.168C4.873,0.853 4.479,-1.814 4.252,-1.795" style="fill:rgb(26,46,53);fill-rule:nonzero;"/>
        </g>
        <g transform="matrix(0.700452,0.7137,0.7137,-0.700452,182.808,102.676)">
            <path d="M4.252,-1.795C4.015,-1.778 4.031,0.89 4.027,4.167C4.031,7.447 4.015,10.113 4.252,10.131C4.479,10.15 4.873,7.483 4.87,4.168C4.873,0.853 4.479,-1.814 4.252,-1.795" style="fill:rgb(26,46,53);fill-rule:nonzero;"/>
        </g>
        <g transform="matrix(1,0,0,1,113.834,60.0818)">
            <path d="M0,11.586C-0.233,11.586 -0.422,8.992 -0.422,5.793C-0.422,2.593 -0.233,0 0,0C0.233,0 0.421,2.593 0.421,5.793C0.421,8.992 0.233,11.586 0,11.586" style="fill:rgb(26,46,53);fill-rule:nonzero;"/>
        </g>
        <g transform="matrix(1,0,0,1,119.328,60.0818)">
            <path d="M0,11.586C-0.233,11.586 -0.422,8.992 -0.422,5.793C-0.422,2.593 -0.233,0 0,0C0.233,0 0.421,2.593 0.421,5.793C0.421,8.992 0.233,11.586 0,11.586" style="fill:rgb(26,46,53);fill-rule:nonzero;"/>
        </g>
        <g transform="matrix(1,0,0,1,124.823,60.0818)">
            <path d="M0,11.586C-0.233,11.586 -0.422,8.992 -0.422,5.793C-0.422,2.593 -0.233,0 0,0C0.233,0 0.421,2.593 0.421,5.793C0.421,8.992 0.233,11.586 0,11.586" style="fill:rgb(26,46,53);fill-rule:nonzero;"/>
        </g>
        <g transform="matrix(1,0,0,1,130.317,60.0818)">
            <path d="M0,11.586C-0.233,11.586 -0.422,8.992 -0.422,5.793C-0.422,2.593 -0.233,0 0,0C0.233,0 0.421,2.593 0.421,5.793C0.421,8.992 0.233,11.586 0,11.586" style="fill:rgb(26,46,53);fill-rule:nonzero;"/>
        </g>
        <g transform="matrix(1,0,0,1,135.811,60.0818)">
            <path d="M0,11.586C-0.233,11.586 -0.422,8.992 -0.422,5.793C-0.422,2.593 -0.233,0 0,0C0.233,0 0.421,2.593 0.421,5.793C0.421,8.992 0.233,11.586 0,11.586" style="fill:rgb(26,46,53);fill-rule:nonzero;"/>
        </g>
        <g transform="matrix(0,-1,-1,0,122.903,146.641)">
            <path d="M-7.339,-7.339C-11.392,-7.339 -14.678,-4.053 -14.678,0C-14.678,4.053 -11.392,7.339 -7.339,7.339C-3.286,7.339 0,4.053 0,0C0,-4.053 -3.286,-7.339 -7.339,-7.339" style="fill:rgb(77,208,225);fill-rule:nonzero;"/>
        </g>
        <g transform="matrix(1,0,0,1,130.242,153.98)">
            <path d="M0,0C-0.074,0.003 -0.061,-0.654 -0.371,-1.756C-0.678,-2.838 -1.427,-4.415 -3.06,-5.622C-4.638,-6.833 -7.225,-7.503 -9.721,-6.567C-12.196,-5.708 -14.329,-3.074 -14.302,-0.001C-14.33,3.073 -12.197,5.708 -9.721,6.567C-7.224,7.503 -4.638,6.832 -3.059,5.622C-1.426,4.415 -0.678,2.838 -0.371,1.756C-0.061,0.654 -0.074,-0.003 0,0C0.026,0 0.043,0.161 0.052,0.472C0.067,0.783 0.036,1.246 -0.088,1.827C-0.318,2.974 -1.025,4.689 -2.737,6.044C-4.39,7.401 -7.196,8.21 -9.957,7.218C-12.693,6.316 -15.087,3.408 -15.054,-0.001C-15.086,-3.409 -12.693,-6.316 -9.957,-7.218C-7.196,-8.21 -4.39,-7.402 -2.737,-6.045C-1.026,-4.69 -0.318,-2.974 -0.088,-1.828C0.036,-1.246 0.067,-0.783 0.052,-0.473C0.043,-0.161 0.026,0 0,0" style="fill:rgb(26,46,53);fill-rule:nonzero;"/>
        </g>
    </g>
</svg>
