<?xml version="1.0" encoding="UTF-8" standalone="no"?>
<!DOCTYPE svg PUBLIC "-//W3C//DTD SVG 1.1//EN" "http://www.w3.org/Graphics/SVG/1.1/DTD/svg11.dtd">
<svg width="100%" height="100%" viewBox="0 0 959 443" version="1.1" xmlns="http://www.w3.org/2000/svg" xmlns:xlink="http://www.w3.org/1999/xlink" xml:space="preserve" xmlns:serif="http://www.serif.com/" style="fill-rule:evenodd;clip-rule:evenodd;stroke-linejoin:round;stroke-miterlimit:2;">
    <g transform="matrix(1,0,0,1,-30.8792,-930.68)">
        <g transform="matrix(1,0,0,1,-1178.2,273.69)">
            <path d="M1408.54,1093.66L1209.08,1093.21L1209.08,899.427L1240.51,899.427L1240.51,816.58L1279.07,816.58L1279.07,900.855L1288.59,900.855L1288.59,863.718L1315.26,863.718L1315.26,900.38L1352.87,900.38L1352.87,970.848L1377.63,970.848L1377.63,944.184L1408.54,913.281L1408.54,1093.66ZM1439.96,899.427L1428.58,899.427L1428.58,853.242L1439.96,853.242L1439.96,899.427Z" style="fill:rgb(245,248,249);fill-rule:nonzero;"/>
        </g>
        <g transform="matrix(1,0,0,1,-1178.2,273.69)">
            <path d="M1373,751.951C1366.65,741.605 1363.04,734.854 1360.37,728.955C1359.59,727.706 1358.99,726.333 1358.6,724.872L1358.6,724.863C1358.28,723.654 1358.11,722.385 1358.11,721.077C1358.11,712.853 1364.78,706.187 1373,706.187C1381.23,706.187 1387.9,712.853 1387.9,721.077C1387.9,722.385 1387.72,723.654 1387.41,724.863L1387.4,724.878C1387.05,726.216 1386.52,727.48 1385.83,728.643C1383.38,733.843 1378.77,742.085 1373,751.951ZM1373,714.01C1369.1,714.01 1365.94,717.174 1365.94,721.077C1365.94,724.98 1369.1,728.143 1373,728.143C1376.91,728.143 1380.07,724.98 1380.07,721.077C1380.07,717.174 1376.91,714.01 1373,714.01Z" style="fill:rgb(230,237,242);fill-rule:nonzero;"/>
        </g>
        <g transform="matrix(1,0,0,1,-1178.2,273.69)">
            <path d="M1373,728.143C1369.1,728.143 1365.94,724.98 1365.94,721.077C1365.94,717.174 1369.1,714.01 1373,714.01C1376.91,714.01 1380.07,717.174 1380.07,721.077C1380.07,724.98 1376.91,728.143 1373,728.143Z" style="fill:rgb(237,241,244);fill-rule:nonzero;"/>
        </g>
        <g transform="matrix(1,0,0,1,-1178.2,273.69)">
            <path d="M2158.69,1095.35L1917.51,1094.81L1917.51,899.427L1939.88,899.427L1939.88,816.58L1978.45,816.58L1978.45,900.855L1987.97,900.855L1987.97,863.718L2014.63,863.718L2014.63,900.38L2052.25,900.38L2052.25,970.848L2077,970.848L2077,944.184L2108.91,912.283L2108.91,943.708L2127.95,943.708L2127.95,853.242L2167.47,853.242L2167.47,899.427L2158.69,899.427L2158.69,1095.35Z" style="fill:rgb(245,248,249);fill-rule:nonzero;"/>
        </g>
        <g transform="matrix(1,0,0,1,-1178.2,273.69)">
            <path d="M1917.51,1099.4L1667.55,1099.4L1667.55,1094.25L1917.51,1094.81L1917.51,1099.4Z" style="fill:white;fill-rule:nonzero;"/>
        </g>
        <g transform="matrix(1,0,0,1,-1178.2,273.69)">
            <path d="M1917.51,1094.81L1667.55,1094.25L1667.55,899.427L1689.92,899.427L1689.92,816.58L1728.49,816.58L1728.49,900.855L1738.01,900.855L1738.01,863.718L1764.67,863.718L1764.67,900.38L1802.29,900.38L1802.29,970.848L1827.05,970.848L1827.05,944.184L1858.95,912.283L1858.95,943.708L1877.99,943.708L1877.99,853.242L1917.51,853.242L1917.51,1094.81Z" style="fill:rgb(245,248,249);fill-rule:nonzero;"/>
        </g>
        <g transform="matrix(1,0,0,1,-1178.2,273.69)">
            <path d="M1667.55,1099.4L1408.54,1099.4L1468.1,1099.4L1468.1,1093.8L1667.55,1094.25L1667.55,1099.4Z" style="fill:white;fill-rule:nonzero;"/>
        </g>
        <g transform="matrix(1,0,0,1,-1178.2,273.69)">
            <path d="M1667.55,1094.25L1468.1,1093.8L1468.1,853.242L1439.96,853.242L1439.96,816.58L1478.53,816.58L1478.53,900.855L1488.05,900.855L1488.05,863.718L1514.71,863.718L1514.71,900.38L1552.33,900.38L1552.33,970.848L1577.09,970.848L1577.09,944.184L1608.99,912.283L1608.99,943.708L1628.03,943.708L1628.03,853.242L1667.55,853.242L1667.55,1094.25ZM1428.58,943.708L1409.53,943.708L1409.53,912.283L1408.54,913.281L1408.54,899.427L1428.58,899.427L1428.58,943.708Z" style="fill:rgb(245,248,249);fill-rule:nonzero;"/>
        </g>
        <g transform="matrix(1,0,0,1,-1178.2,273.69)">
            <path d="M1468.1,1099.4L1408.54,1099.4L1408.54,1093.66L1468.1,1093.8L1468.1,1099.4Z" style="fill:white;fill-rule:nonzero;"/>
        </g>
        <g transform="matrix(1,0,0,1,-1178.2,273.69)">
            <path d="M1468.1,1093.8L1408.54,1093.66L1408.54,913.281L1409.53,912.283L1409.53,943.708L1428.58,943.708L1428.58,899.427L1439.96,899.427L1439.96,853.242L1468.1,853.242L1468.1,1093.8Z" style="fill:rgb(250,251,252);fill-rule:nonzero;"/>
        </g>
        <g transform="matrix(1,0,0,1,-1178.2,273.69)">
            <path d="M1572.2,849.018C1565.85,838.672 1562.24,831.921 1559.57,826.021C1558.79,824.772 1558.18,823.4 1557.8,821.938L1557.8,821.928C1557.48,820.72 1557.31,819.452 1557.31,818.143C1557.31,809.92 1563.98,803.253 1572.2,803.253C1580.42,803.253 1587.09,809.92 1587.09,818.143C1587.09,819.452 1586.92,820.72 1586.6,821.928L1586.6,821.944C1586.25,823.283 1585.71,824.546 1585.03,825.709C1582.58,830.909 1577.97,839.151 1572.2,849.018ZM1572.2,811.077C1568.3,811.077 1565.13,814.24 1565.13,818.143C1565.13,822.046 1568.3,825.21 1572.2,825.21C1576.1,825.21 1579.27,822.046 1579.27,818.143C1579.27,814.24 1576.1,811.077 1572.2,811.077Z" style="fill:rgb(230,237,242);fill-rule:nonzero;"/>
        </g>
        <g transform="matrix(1,0,0,1,-1178.2,273.69)">
            <path d="M1572.2,825.21C1568.3,825.21 1565.13,822.046 1565.13,818.143C1565.13,814.24 1568.3,811.077 1572.2,811.077C1576.1,811.077 1579.27,814.24 1579.27,818.143C1579.27,822.046 1576.1,825.21 1572.2,825.21Z" style="fill:rgb(237,241,244);fill-rule:nonzero;"/>
        </g>
        <g transform="matrix(1,0,0,1,-1178.2,273.69)">
            <path d="M1477.27,805.694C1472.13,797.314 1469.2,791.846 1467.04,787.068C1466.41,786.056 1465.92,784.944 1465.61,783.761L1465.6,783.753L1465.61,783.753C1465.35,782.773 1465.21,781.746 1465.21,780.686C1465.21,774.025 1470.61,768.625 1477.27,768.625C1483.93,768.625 1489.33,774.025 1489.33,780.686C1489.33,781.746 1489.19,782.773 1488.94,783.753L1488.94,783.765C1488.65,784.85 1488.22,785.873 1487.66,786.815C1485.68,791.028 1481.94,797.702 1477.27,805.694ZM1477.27,774.963C1474.11,774.963 1471.55,777.525 1471.55,780.686C1471.55,783.848 1474.11,786.41 1477.27,786.41C1480.43,786.41 1483,783.848 1483,780.686C1483,777.525 1480.43,774.963 1477.27,774.963Z" style="fill:rgb(230,237,242);fill-rule:nonzero;"/>
        </g>
        <g transform="matrix(1,0,0,1,-1178.2,273.69)">
            <path d="M1477.27,786.41C1474.11,786.41 1471.55,783.848 1471.55,780.686C1471.55,777.525 1474.11,774.963 1477.27,774.963C1480.43,774.963 1483,777.525 1483,780.686C1483,783.848 1480.43,786.41 1477.27,786.41Z" style="fill:rgb(237,241,244);fill-rule:nonzero;"/>
        </g>
        <g transform="matrix(1,0,0,1,-1178.2,273.69)">
            <rect x="1446.07" y="844.958" width="373.74" height="186.442" style="fill:rgb(177,201,253);fill-rule:nonzero;"/>
        </g>
        <g transform="matrix(1,0,0,1,-1178.2,273.69)">
            <rect x="1450.73" y="844.958" width="2.66" height="186.442" style="fill:white;fill-rule:nonzero;"/>
        </g>
        <g transform="matrix(1,0,0,1,-1178.2,273.69)">
            <rect x="1458.27" y="844.958" width="2.66" height="186.442" style="fill:white;fill-rule:nonzero;"/>
        </g>
        <g transform="matrix(1,0,0,1,-1178.2,273.69)">
            <rect x="1465.81" y="844.958" width="2.66" height="186.442" style="fill:white;fill-rule:nonzero;"/>
        </g>
        <g transform="matrix(1,0,0,1,-1178.2,273.69)">
            <rect x="1473.35" y="844.958" width="2.66" height="186.442" style="fill:white;fill-rule:nonzero;"/>
        </g>
        <g transform="matrix(1,0,0,1,-1178.2,273.69)">
            <rect x="1480.89" y="844.958" width="2.66" height="186.442" style="fill:white;fill-rule:nonzero;"/>
        </g>
        <g transform="matrix(1,0,0,1,-1178.2,273.69)">
            <rect x="1488.43" y="844.958" width="2.66" height="186.442" style="fill:white;fill-rule:nonzero;"/>
        </g>
        <g transform="matrix(1,0,0,1,-1178.2,273.69)">
            <rect x="1495.97" y="844.958" width="2.66" height="186.442" style="fill:white;fill-rule:nonzero;"/>
        </g>
        <g transform="matrix(1,0,0,1,-1178.2,273.69)">
            <rect x="1503.51" y="844.958" width="2.66" height="186.442" style="fill:white;fill-rule:nonzero;"/>
        </g>
        <g transform="matrix(1,0,0,1,-1178.2,273.69)">
            <rect x="1511.05" y="844.958" width="2.66" height="186.442" style="fill:white;fill-rule:nonzero;"/>
        </g>
        <g transform="matrix(1,0,0,1,-1178.2,273.69)">
            <rect x="1518.59" y="844.958" width="2.66" height="186.442" style="fill:white;fill-rule:nonzero;"/>
        </g>
        <g transform="matrix(1,0,0,1,-1178.2,273.69)">
            <rect x="1526.13" y="844.958" width="2.66" height="186.442" style="fill:white;fill-rule:nonzero;"/>
        </g>
        <g transform="matrix(1,0,0,1,-1178.2,273.69)">
            <rect x="1533.67" y="844.958" width="2.66" height="186.442" style="fill:white;fill-rule:nonzero;"/>
        </g>
        <g transform="matrix(1,0,0,1,-1178.2,273.69)">
            <rect x="1541.21" y="844.958" width="2.66" height="186.442" style="fill:white;fill-rule:nonzero;"/>
        </g>
        <g transform="matrix(1,0,0,1,-1178.2,273.69)">
            <rect x="1548.75" y="844.958" width="2.66" height="186.442" style="fill:white;fill-rule:nonzero;"/>
        </g>
        <g transform="matrix(1,0,0,1,-1178.2,273.69)">
            <rect x="1556.29" y="844.958" width="2.66" height="186.442" style="fill:white;fill-rule:nonzero;"/>
        </g>
        <g transform="matrix(1,0,0,1,-1178.2,273.69)">
            <rect x="1563.83" y="844.958" width="2.66" height="186.442" style="fill:white;fill-rule:nonzero;"/>
        </g>
        <g transform="matrix(1,0,0,1,-1178.2,273.69)">
            <rect x="1571.37" y="844.958" width="2.66" height="186.442" style="fill:white;fill-rule:nonzero;"/>
        </g>
        <g transform="matrix(1,0,0,1,-1178.2,273.69)">
            <rect x="1578.91" y="844.958" width="2.66" height="186.442" style="fill:white;fill-rule:nonzero;"/>
        </g>
        <g transform="matrix(1,0,0,1,-1178.2,273.69)">
            <rect x="1586.45" y="844.958" width="2.66" height="186.442" style="fill:white;fill-rule:nonzero;"/>
        </g>
        <g transform="matrix(1,0,0,1,-1178.2,273.69)">
            <rect x="1593.99" y="844.958" width="2.66" height="186.442" style="fill:white;fill-rule:nonzero;"/>
        </g>
        <g transform="matrix(1,0,0,1,-1178.2,273.69)">
            <rect x="1601.53" y="844.958" width="2.66" height="186.442" style="fill:white;fill-rule:nonzero;"/>
        </g>
        <g transform="matrix(1,0,0,1,-1178.2,273.69)">
            <rect x="1609.07" y="844.958" width="2.66" height="186.442" style="fill:white;fill-rule:nonzero;"/>
        </g>
        <g transform="matrix(1,0,0,1,-1178.2,273.69)">
            <rect x="1616.61" y="844.958" width="2.66" height="186.442" style="fill:white;fill-rule:nonzero;"/>
        </g>
        <g transform="matrix(1,0,0,1,-1178.2,273.69)">
            <rect x="1624.15" y="844.958" width="2.66" height="186.442" style="fill:white;fill-rule:nonzero;"/>
        </g>
        <g transform="matrix(1,0,0,1,-1178.2,273.69)">
            <rect x="1631.69" y="844.958" width="2.66" height="186.442" style="fill:white;fill-rule:nonzero;"/>
        </g>
        <g transform="matrix(1,0,0,1,-1178.2,273.69)">
            <rect x="1639.23" y="844.958" width="2.66" height="186.442" style="fill:white;fill-rule:nonzero;"/>
        </g>
        <g transform="matrix(1,0,0,1,-1178.2,273.69)">
            <rect x="1646.77" y="844.958" width="2.66" height="186.442" style="fill:white;fill-rule:nonzero;"/>
        </g>
        <g transform="matrix(1,0,0,1,-1178.2,273.69)">
            <rect x="1654.31" y="844.958" width="2.66" height="186.442" style="fill:white;fill-rule:nonzero;"/>
        </g>
        <g transform="matrix(1,0,0,1,-1178.2,273.69)">
            <rect x="1661.85" y="844.958" width="2.66" height="186.442" style="fill:white;fill-rule:nonzero;"/>
        </g>
        <g transform="matrix(1,0,0,1,-1178.2,273.69)">
            <rect x="1669.39" y="844.958" width="2.66" height="186.442" style="fill:white;fill-rule:nonzero;"/>
        </g>
        <g transform="matrix(1,0,0,1,-1178.2,273.69)">
            <rect x="1676.93" y="844.958" width="2.66" height="186.442" style="fill:white;fill-rule:nonzero;"/>
        </g>
        <g transform="matrix(1,0,0,1,-1178.2,273.69)">
            <rect x="1684.47" y="844.958" width="2.66" height="186.442" style="fill:white;fill-rule:nonzero;"/>
        </g>
        <g transform="matrix(1,0,0,1,-1178.2,273.69)">
            <rect x="1692.01" y="844.958" width="2.66" height="186.442" style="fill:white;fill-rule:nonzero;"/>
        </g>
        <g transform="matrix(1,0,0,1,-1178.2,273.69)">
            <rect x="1699.55" y="844.958" width="2.66" height="186.442" style="fill:white;fill-rule:nonzero;"/>
        </g>
        <g transform="matrix(1,0,0,1,-1178.2,273.69)">
            <rect x="1707.09" y="844.958" width="2.66" height="186.442" style="fill:white;fill-rule:nonzero;"/>
        </g>
        <g transform="matrix(1,0,0,1,-1178.2,273.69)">
            <rect x="1714.63" y="844.958" width="2.66" height="186.442" style="fill:white;fill-rule:nonzero;"/>
        </g>
        <g transform="matrix(1,0,0,1,-1178.2,273.69)">
            <rect x="1722.17" y="844.958" width="2.66" height="186.442" style="fill:white;fill-rule:nonzero;"/>
        </g>
        <g transform="matrix(1,0,0,1,-1178.2,273.69)">
            <rect x="1729.71" y="844.958" width="2.66" height="186.442" style="fill:white;fill-rule:nonzero;"/>
        </g>
        <g transform="matrix(1,0,0,1,-1178.2,273.69)">
            <rect x="1737.25" y="844.958" width="2.66" height="186.442" style="fill:white;fill-rule:nonzero;"/>
        </g>
        <g transform="matrix(1,0,0,1,-1178.2,273.69)">
            <rect x="1744.79" y="844.958" width="2.66" height="186.442" style="fill:white;fill-rule:nonzero;"/>
        </g>
        <g transform="matrix(1,0,0,1,-1178.2,273.69)">
            <rect x="1752.33" y="844.958" width="2.66" height="186.442" style="fill:white;fill-rule:nonzero;"/>
        </g>
        <g transform="matrix(1,0,0,1,-1178.2,273.69)">
            <rect x="1759.87" y="844.958" width="2.66" height="186.442" style="fill:white;fill-rule:nonzero;"/>
        </g>
        <g transform="matrix(1,0,0,1,-1178.2,273.69)">
            <rect x="1767.41" y="844.958" width="2.66" height="186.442" style="fill:white;fill-rule:nonzero;"/>
        </g>
        <g transform="matrix(1,0,0,1,-1178.2,273.69)">
            <rect x="1774.95" y="844.958" width="2.66" height="186.442" style="fill:white;fill-rule:nonzero;"/>
        </g>
        <g transform="matrix(1,0,0,1,-1178.2,273.69)">
            <rect x="1782.49" y="844.958" width="2.66" height="186.442" style="fill:white;fill-rule:nonzero;"/>
        </g>
        <g transform="matrix(1,0,0,1,-1178.2,273.69)">
            <rect x="1790.03" y="844.958" width="2.66" height="186.442" style="fill:white;fill-rule:nonzero;"/>
        </g>
        <g transform="matrix(1,0,0,1,-1178.2,273.69)">
            <rect x="1797.57" y="844.958" width="2.66" height="186.442" style="fill:white;fill-rule:nonzero;"/>
        </g>
        <g transform="matrix(1,0,0,1,-1178.2,273.69)">
            <rect x="1805.11" y="844.958" width="2.66" height="186.442" style="fill:white;fill-rule:nonzero;"/>
        </g>
        <g transform="matrix(1,0,0,1,-1178.2,273.69)">
            <rect x="1812.65" y="844.958" width="2.66" height="186.442" style="fill:white;fill-rule:nonzero;"/>
        </g>
        <g transform="matrix(1,0,0,1,-1178.2,273.69)">
            <path d="M1819.81,1086.53L1819.81,1065.39L1826.37,1065.39L1826.37,1079.97C1826.37,1083.59 1823.44,1086.53 1819.81,1086.53Z" style="fill:rgb(53,15,162);fill-rule:nonzero;"/>
        </g>
        <g transform="matrix(1,0,0,1,-1178.2,273.69)">
            <path d="M1819.81,1031.44L1819.81,1062.04L1632.8,1062.04C1631.68,1055.24 1628.43,1049.16 1623.77,1044.51C1617.92,1038.65 1609.82,1035.03 1600.89,1035.03C1584.85,1035.03 1571.53,1046.71 1568.98,1062.04L1446.1,1062.04L1446.1,1031.44L1819.81,1031.44Z" style="fill:url(#_Linear1);"/>
        </g>
        <g transform="matrix(1,0,0,1,-1178.2,273.69)">
            <path d="M1819.81,1062.04L1819.81,1069.62L1633.25,1069.62L1633.25,1067.39C1633.25,1065.57 1633.1,1063.79 1632.8,1062.04L1819.81,1062.04Z" style="fill:url(#_Linear2);"/>
        </g>
        <g transform="matrix(1,0,0,1,-1178.2,273.69)">
            <path d="M1897.94,926.779L1819.81,918.617L1819.81,1066.12L1826.23,1066.12L1826.23,1065.83C1826.23,1048.6 1840.19,1034.64 1857.42,1034.64C1874.65,1034.64 1888.61,1048.6 1888.61,1065.83L1888.61,1066.12L1935.25,1066.12L1935.25,985.081L1897.94,926.779Z" style="fill:url(#_Linear3);"/>
        </g>
        <g transform="matrix(1,0,0,1,-1178.2,273.69)">
            <rect x="1928.84" y="1016.56" width="6.41" height="14.871" style="fill:url(#_Linear4);"/>
        </g>
        <g transform="matrix(1,0,0,1,-1178.2,273.69)">
            <path d="M1838.18,960.531L1838.18,937.184C1838.18,933.97 1840.98,931.472 1844.17,931.836L1887.24,936.751C1890.15,937.083 1892.77,938.662 1894.42,941.077L1925.34,986.247L1889.49,986.247L1843.11,967.805C1840.13,966.619 1838.18,963.737 1838.18,960.531Z" style="fill:url(#_Linear5);"/>
        </g>
        <g transform="matrix(1,0,0,1,-1178.2,273.69)">
            <rect x="1836.5" y="987.268" width="20.99" height="2.405" style="fill:url(#_Linear6);"/>
        </g>
        <g transform="matrix(1,0,0,1,-1178.2,273.69)">
            <path d="M1889,1028.61L1819.67,1028.61L1819.67,1027.25L1887.64,1027.25L1887.64,986.247L1889,986.247L1889,1028.61Z" style="fill:rgb(53,15,162);fill-rule:nonzero;"/>
        </g>
        <g transform="matrix(1,0,0,1,-1178.2,273.69)">
            <path d="M1891.81,938.44L1890.64,937.747L1897.35,926.433L1898.52,927.126L1891.81,938.44Z" style="fill:rgb(53,15,162);fill-rule:nonzero;"/>
        </g>
        <g transform="matrix(1,0,0,1,-1178.2,273.69)">
            <path d="M1446.1,1062.04L1568.98,1062.04C1568.69,1063.79 1568.54,1065.57 1568.54,1067.39L1568.54,1069.62L1446.1,1069.62L1446.1,1062.04Z" style="fill:url(#_Linear7);"/>
        </g>
        <g transform="matrix(1,0,0,1,-1178.2,273.69)">
            <path d="M1626.69,1066.12C1626.69,1080.57 1614.97,1092.29 1600.53,1092.29C1586.08,1092.29 1574.36,1080.57 1574.36,1066.12C1574.36,1051.67 1586.08,1039.96 1600.53,1039.96C1614.97,1039.96 1626.69,1051.67 1626.69,1066.12Z" style="fill:rgb(53,15,162);fill-rule:nonzero;"/>
        </g>
        <g transform="matrix(1,0,0,1,-1178.2,273.69)">
            <path d="M1614.15,1066.12C1614.15,1073.65 1608.05,1079.75 1600.53,1079.75C1593,1079.75 1586.9,1073.65 1586.9,1066.12C1586.9,1058.59 1593,1052.49 1600.53,1052.49C1608.05,1052.49 1614.15,1058.59 1614.15,1066.12Z" style="fill:url(#_Linear8);"/>
        </g>
        <g transform="matrix(1,0,0,1,-1178.2,273.69)">
            <path d="M1605.48,1066.12C1605.48,1068.86 1603.26,1071.08 1600.53,1071.08C1597.79,1071.08 1595.57,1068.86 1595.57,1066.12C1595.57,1063.38 1597.79,1061.17 1600.53,1061.17C1603.26,1061.17 1605.48,1063.38 1605.48,1066.12Z" style="fill:rgb(53,15,162);fill-rule:nonzero;"/>
        </g>
        <g transform="matrix(1,0,0,1,-1178.2,273.69)">
            <path d="M1883.92,1066.12C1883.92,1080.57 1872.21,1092.29 1857.76,1092.29C1843.31,1092.29 1831.6,1080.57 1831.6,1066.12C1831.6,1051.67 1843.31,1039.96 1857.76,1039.96C1872.21,1039.96 1883.92,1051.67 1883.92,1066.12Z" style="fill:rgb(53,15,162);fill-rule:nonzero;"/>
        </g>
        <g transform="matrix(1,0,0,1,-1178.2,273.69)">
            <path d="M1871.39,1066.12C1871.39,1073.65 1865.29,1079.75 1857.76,1079.75C1850.23,1079.75 1844.13,1073.65 1844.13,1066.12C1844.13,1058.59 1850.23,1052.49 1857.76,1052.49C1865.29,1052.49 1871.39,1058.59 1871.39,1066.12Z" style="fill:url(#_Linear9);"/>
        </g>
        <g transform="matrix(1,0,0,1,-1178.2,273.69)">
            <path d="M1862.71,1065.39C1862.71,1068.13 1860.5,1070.35 1857.76,1070.35C1855.02,1070.35 1852.8,1068.13 1852.8,1065.39C1852.8,1062.66 1855.02,1060.44 1857.76,1060.44C1860.5,1060.44 1862.71,1062.66 1862.71,1065.39Z" style="fill:rgb(53,15,162);fill-rule:nonzero;"/>
        </g>
        <g transform="matrix(1,0,0,1,-1178.2,273.69)">
            <path d="M1894.1,695.04L1915.48,683.164L1935.51,687.97L1933.1,695.04L1914.8,690.639L1894.1,703.454L1894.1,695.04Z" style="fill:url(#_Linear10);"/>
        </g>
        <g transform="matrix(1,0,0,1,-1178.2,273.69)">
            <path d="M1870.36,691.595L1856.31,671.578L1836.2,667.163L1835.27,674.573L1853.66,678.601L1866.69,699.165L1870.36,691.595Z" style="fill:url(#_Linear11);"/>
        </g>
        <g transform="matrix(1,0,0,1,-1178.2,273.69)">
            <path d="M1849.78,670.154L1843.69,669.505L1845.21,663.782L1851.06,665.338L1849.78,670.154Z" style="fill:url(#_Linear12);"/>
        </g>
        <g transform="matrix(1,0,0,1,-1178.2,273.69)">
            <path d="M1872.12,668.805C1871.88,669.85 1860.58,668.12 1846.89,664.941C1833.2,661.763 1822.3,658.339 1822.54,657.295C1822.78,656.25 1834.08,657.98 1847.77,661.159C1861.46,664.337 1872.37,667.761 1872.12,668.805Z" style="fill:white;fill-rule:nonzero;"/>
        </g>
        <g transform="matrix(1,0,0,1,-1178.2,273.69)">
            <path d="M1930.4,687.2L1924.48,685.898L1926.1,679.8L1931.95,681.356L1930.4,687.2Z" style="fill:url(#_Linear13);"/>
        </g>
        <g transform="matrix(1,0,0,1,-1178.2,273.69)">
            <path d="M1953.01,684.823C1952.77,685.868 1941.47,684.138 1927.78,680.959C1914.09,677.781 1903.19,674.357 1903.43,673.313C1903.67,672.268 1914.97,673.998 1928.66,677.177C1942.35,680.355 1953.26,683.779 1953.01,684.823Z" style="fill:white;fill-rule:nonzero;"/>
        </g>
        <g transform="matrix(1,0,0,1,-1178.2,273.69)">
            <path d="M1889.09,694.852L1871.9,691.509L1872.08,690.586C1873,685.839 1877.6,682.74 1882.34,683.663C1887.09,684.586 1890.19,689.182 1889.27,693.929L1889.09,694.852Z" style="fill:rgb(255,126,120);fill-rule:nonzero;"/>
        </g>
        <g transform="matrix(1,0,0,1,-1178.2,273.69)">
            <path d="M1901.91,716.431L1894.9,700.845L1896.42,700.164L1903.43,715.75L1901.91,716.431Z" style="fill:rgb(53,15,162);fill-rule:nonzero;"/>
        </g>
        <g transform="matrix(1,0,0,1,-1178.2,273.69)">
            <path d="M1879.26,712.601L1877.63,712.271L1879.85,701.298L1881.48,701.627L1879.26,712.601Z" style="fill:rgb(53,15,162);fill-rule:nonzero;"/>
        </g>
        <g transform="matrix(1,0,0,1,-1178.2,273.69)">
            <path d="M1855.32,710.253L1853.91,709.382L1860.88,698.071L1862.29,698.942L1855.32,710.253Z" style="fill:rgb(53,15,162);fill-rule:nonzero;"/>
        </g>
        <g transform="matrix(1,0,0,1,-1178.2,273.69)">
            <path d="M1901.2,775.264L1832.18,761.842L1843.7,702.597L1912.72,716.019L1901.2,775.264Z" style="fill:url(#_Linear14);"/>
        </g>
        <g transform="matrix(1,0,0,1,-1178.2,273.69)">
            <path d="M1906.64,748.059L1837.6,734.715L1838.55,729.822L1907.58,743.166L1906.64,748.059Z" style="fill:rgb(255,197,114);fill-rule:nonzero;"/>
        </g>
        <g transform="matrix(1,0,0,1,-1178.2,273.69)">
            <path d="M1868.52,768.969L1863.65,767.904L1876.54,708.925L1881.41,709.989L1868.52,768.969Z" style="fill:rgb(255,197,114);fill-rule:nonzero;"/>
        </g>
        <g transform="matrix(1,0,0,1,-1178.2,273.69)">
            <path d="M1898.98,705.778L1860.28,698.252L1862.11,688.818L1900.81,696.344L1898.98,705.778Z" style="fill:url(#_Linear15);"/>
        </g>
    </g>
    <defs>
        <linearGradient id="_Linear1" x1="0" y1="0" x2="1" y2="0" gradientUnits="userSpaceOnUse" gradientTransform="matrix(373.712,0,0,373.712,1446.1,1046.74)"><stop offset="0" style="stop-color:rgb(103,209,255);stop-opacity:1"/><stop offset="1" style="stop-color:rgb(33,135,216);stop-opacity:1"/></linearGradient>
        <linearGradient id="_Linear2" x1="0" y1="0" x2="1" y2="0" gradientUnits="userSpaceOnUse" gradientTransform="matrix(187.012,0,0,187.012,1632.8,1065.83)"><stop offset="0" style="stop-color:rgb(103,209,255);stop-opacity:1"/><stop offset="1" style="stop-color:rgb(33,135,216);stop-opacity:1"/></linearGradient>
        <linearGradient id="_Linear3" x1="0" y1="0" x2="1" y2="0" gradientUnits="userSpaceOnUse" gradientTransform="matrix(115.439,0,0,115.439,1819.81,992.369)"><stop offset="0" style="stop-color:rgb(103,209,255);stop-opacity:1"/><stop offset="1" style="stop-color:rgb(33,135,216);stop-opacity:1"/></linearGradient>
        <linearGradient id="_Linear4" x1="0" y1="0" x2="1" y2="0" gradientUnits="userSpaceOnUse" gradientTransform="matrix(6.41325,0,0,6.41325,1928.84,1024)"><stop offset="0" style="stop-color:rgb(255,196,114);stop-opacity:1"/><stop offset="1" style="stop-color:rgb(255,77,179);stop-opacity:1"/></linearGradient>
        <linearGradient id="_Linear5" x1="0" y1="0" x2="1" y2="0" gradientUnits="userSpaceOnUse" gradientTransform="matrix(-1.3118,-62.9664,62.9664,-1.3118,1882.66,1016.63)"><stop offset="0" style="stop-color:rgb(209,223,239);stop-opacity:1"/><stop offset="1" style="stop-color:rgb(242,242,242);stop-opacity:1"/></linearGradient>
        <linearGradient id="_Linear6" x1="0" y1="0" x2="1" y2="0" gradientUnits="userSpaceOnUse" gradientTransform="matrix(20.9888,0,0,20.9888,1836.5,988.47)"><stop offset="0" style="stop-color:rgb(255,196,114);stop-opacity:1"/><stop offset="1" style="stop-color:rgb(255,77,179);stop-opacity:1"/></linearGradient>
        <linearGradient id="_Linear7" x1="0" y1="0" x2="1" y2="0" gradientUnits="userSpaceOnUse" gradientTransform="matrix(122.884,0,0,122.884,1446.1,1065.83)"><stop offset="0" style="stop-color:rgb(103,209,255);stop-opacity:1"/><stop offset="1" style="stop-color:rgb(33,135,216);stop-opacity:1"/></linearGradient>
        <linearGradient id="_Linear8" x1="0" y1="0" x2="1" y2="0" gradientUnits="userSpaceOnUse" gradientTransform="matrix(27.2563,0,0,27.2563,1586.9,1066.12)"><stop offset="0" style="stop-color:rgb(96,161,226);stop-opacity:1"/><stop offset="1" style="stop-color:rgb(93,94,207);stop-opacity:1"/></linearGradient>
        <linearGradient id="_Linear9" x1="0" y1="0" x2="1" y2="0" gradientUnits="userSpaceOnUse" gradientTransform="matrix(27.2563,0,0,27.2563,1844.13,1066.12)"><stop offset="0" style="stop-color:rgb(96,161,226);stop-opacity:1"/><stop offset="1" style="stop-color:rgb(93,94,207);stop-opacity:1"/></linearGradient>
        <linearGradient id="_Linear10" x1="0" y1="0" x2="1" y2="0" gradientUnits="userSpaceOnUse" gradientTransform="matrix(41.405,0,0,41.405,1894.1,693.309)"><stop offset="0" style="stop-color:rgb(103,209,255);stop-opacity:1"/><stop offset="1" style="stop-color:rgb(33,135,216);stop-opacity:1"/></linearGradient>
        <linearGradient id="_Linear11" x1="0" y1="0" x2="1" y2="0" gradientUnits="userSpaceOnUse" gradientTransform="matrix(35.0919,0,0,35.0919,1835.27,683.164)"><stop offset="0" style="stop-color:rgb(103,209,255);stop-opacity:1"/><stop offset="1" style="stop-color:rgb(33,135,216);stop-opacity:1"/></linearGradient>
        <linearGradient id="_Linear12" x1="0" y1="0" x2="1" y2="0" gradientUnits="userSpaceOnUse" gradientTransform="matrix(7.37104,0,0,7.37104,1843.69,666.968)"><stop offset="0" style="stop-color:rgb(103,209,255);stop-opacity:1"/><stop offset="1" style="stop-color:rgb(33,135,216);stop-opacity:1"/></linearGradient>
        <linearGradient id="_Linear13" x1="0" y1="0" x2="1" y2="0" gradientUnits="userSpaceOnUse" gradientTransform="matrix(7.47071,0,0,7.47071,1924.48,683.5)"><stop offset="0" style="stop-color:rgb(103,209,255);stop-opacity:1"/><stop offset="1" style="stop-color:rgb(33,135,216);stop-opacity:1"/></linearGradient>
        <linearGradient id="_Linear14" x1="0" y1="0" x2="1" y2="0" gradientUnits="userSpaceOnUse" gradientTransform="matrix(80.5398,0,0,80.5398,1832.18,738.93)"><stop offset="0" style="stop-color:rgb(255,196,114);stop-opacity:1"/><stop offset="1" style="stop-color:rgb(255,77,179);stop-opacity:1"/></linearGradient>
        <linearGradient id="_Linear15" x1="0" y1="0" x2="1" y2="0" gradientUnits="userSpaceOnUse" gradientTransform="matrix(40.535,0,0,40.535,1860.28,697.298)"><stop offset="0" style="stop-color:rgb(103,209,255);stop-opacity:1"/><stop offset="1" style="stop-color:rgb(33,135,216);stop-opacity:1"/></linearGradient>
    </defs>
</svg>
